/* XPM */
static char *f600cc3ea53744d983a84f8d03996ed8wWgF40kNpAsikvNC[] = {
/* columns rows colors chars-per-pixel */
"50 50 247 2 ",
"   c #1A1D01",
".  c #181500",
"X  c #061C04",
"o  c #2A1704",
"O  c #3A1700",
"+  c #301F15",
"@  c #012B02",
"#  c #092E01",
"$  c #042807",
"%  c #172603",
"&  c #033402",
"*  c #013B02",
"=  c #0C3305",
"-  c #182913",
";  c #0A3D11",
":  c #18340F",
">  c #292800",
",  c #3B2D00",
"<  c #352801",
"1  c #253707",
"2  c #393506",
"3  c #292F1A",
"4  c #461B07",
"5  c #482601",
"6  c #553310",
"7  c #683C05",
"8  c #692403",
"9  c #004301",
"0  c #024C02",
"q  c #08480B",
"w  c #075C06",
"e  c #135A0C",
"r  c #164714",
"t  c #165716",
"y  c #104207",
"u  c #344F16",
"i  c #096908",
"p  c #027301",
"a  c #057A07",
"s  c #0C6B11",
"d  c #166918",
"f  c #1C7C1C",
"g  c #187717",
"h  c #107209",
"j  c #226E1C",
"k  c #115D21",
"l  c #235927",
"z  c #2C4E24",
"x  c #1C7227",
"c  c #106C25",
"v  c #26672A",
"b  c #267726",
"n  c #377B38",
"m  c #306D39",
"M  c #4C4516",
"N  c #53440B",
"B  c #7A5111",
"V  c #745925",
"C  c #695831",
"Z  c #6C4A29",
"A  c #4B783F",
"S  c #357342",
"D  c #527748",
"F  c #4F714E",
"G  c #983E10",
"H  c #8F4F0F",
"J  c #984806",
"K  c #9C5303",
"L  c #995408",
"P  c #884A15",
"I  c #995815",
"U  c #915714",
"Y  c #A44E01",
"T  c #A94806",
"R  c #A35304",
"E  c #AA5405",
"W  c #A3550A",
"Q  c #AC540A",
"!  c #A55A0B",
"~  c #AD5A0B",
"^  c #AC5A04",
"/  c #B25D0E",
"(  c #B55706",
")  c #A34E12",
"_  c #AD5C11",
"`  c #A95818",
"'  c #B45D13",
"]  c #B65517",
"[  c #BA640D",
"{  c #AE6416",
"}  c #B56314",
"|  c #BA6415",
" . c #BB6A1C",
".. c #B96618",
"X. c #BE731D",
"o. c #BA7518",
"O. c #A8600E",
"+. c #854A28",
"@. c #984926",
"#. c #895E23",
"$. c #965827",
"%. c #925B38",
"&. c #835138",
"*. c #A94D24",
"=. c #AC5C26",
"-. c #B65A26",
";. c #A65C37",
":. c #8B6526",
">. c #BE6F20",
",. c #BC7322",
"<. c #BA7727",
"1. c #A36B32",
"2. c #8D6118",
"3. c #C05E1D",
"4. c #C16A0E",
"5. c #CC730B",
"6. c #C56D14",
"7. c #CB6D14",
"8. c #C46D1D",
"9. c #CA6D1D",
"0. c #C66619",
"q. c #C57214",
"w. c #CA7215",
"e. c #C6721D",
"r. c #CB741B",
"t. c #CD7A1B",
"y. c #CD7915",
"u. c #D27D15",
"i. c #D27C1D",
"p. c #D5731D",
"a. c #D06A18",
"s. c #C56E22",
"d. c #CD6C22",
"f. c #C66B2A",
"g. c #D26D24",
"h. c #C67122",
"j. c #CA7324",
"k. c #CD7923",
"l. c #CB7429",
"z. c #C47929",
"x. c #D37C22",
"c. c #D07A2B",
"v. c #D67728",
"b. c #E47D23",
"n. c #966749",
"m. c #A66744",
"M. c #0C8804",
"N. c #128D0E",
"B. c #0B9E0C",
"V. c #099907",
"C. c #159B0C",
"Z. c #198817",
"A. c #089A13",
"S. c #1B9B19",
"D. c #189717",
"F. c #228B1D",
"G. c #23971C",
"H. c #01A403",
"J. c #03AB05",
"K. c #09A70B",
"L. c #04B809",
"P. c #07A812",
"I. c #16A01B",
"U. c #0BB915",
"Y. c #13B011",
"T. c #1E8722",
"R. c #238B23",
"E. c #298626",
"W. c #289326",
"Q. c #278638",
"!. c #358634",
"~. c #359737",
"^. c #0DA820",
"/. c #23A928",
"(. c #37A539",
"). c #2EB135",
"_. c #08C808",
"`. c #13C90A",
"'. c #0EC715",
"]. c #14C513",
"[. c #13CE15",
"{. c #18C919",
"}. c #16D518",
"|. c #0AD204",
" X c #27DC1B",
".X c #25CB16",
"XX c #1BC822",
"oX c #26D725",
"OX c #2CD12C",
"+X c #3EED38",
"@X c #32F132",
"#X c #46F839",
"$X c #45E138",
"%X c #319648",
"&X c #4AB64C",
"*X c #48A25D",
"=X c #4CB057",
"-X c #7BBA71",
";X c #649155",
":X c #3FE344",
">X c #4BE948",
",X c #52ED4C",
"<X c #59ED4E",
"1X c #53F645",
"2X c #53EC55",
"3X c #55EA58",
"4X c #51F650",
"5X c #5AD361",
"6X c #59CC64",
"7X c #65D964",
"8X c #73C773",
"9X c #6FD773",
"0X c #72DD76",
"qX c #71CE6E",
"wX c #6DE06C",
"eX c #70E573",
"rX c #5ED05F",
"tX c #CE801D",
"yX c #D5821D",
"uX c #D9821D",
"iX c #DD8B1D",
"pX c #CC8223",
"aX c #D68123",
"sX c #DA8325",
"dX c #DD8A26",
"fX c #DC852A",
"gX c #DE892A",
"hX c #D6852A",
"jX c #DE902C",
"kX c #DC8C33",
"lX c #E28D24",
"zX c #E28B2C",
"xX c #EB8424",
"cX c #E5912A",
"vX c #EA942D",
"bX c #E7962A",
"nX c #E48D32",
"mX c #E98A38",
"MX c #E59134",
"NX c #EA9434",
"BX c #ED953B",
"VX c #E79738",
"CX c #F1933C",
"ZX c #93AA74",
"AX c #75C385",
"SX c #90CD87",
"DX c #9AD2A3",
/* pixels */
"/./.S.).5XeXeXeXwX5X9X0X6X).D.I./.).).D.R.(.7XeXeX9X0XqXrX&X/.S././.D.).5XeX9XwXwXrX9X0X6X).A.I./.).",
"U.L.OX,X4X3X,X<X,X>X2X2X2X:XXXY.'.XXU.U.OX<X3X,X>X,X<X2X2X$XoX].'._.OX>X4X3X,X<X1X>X3X3X2X>XXXY.'.XX",
"#X@X#X+XOX]._.'.[.[.`.[.oX#X1X#X1X1X<X<X<X$XOX.X`.`.[.}.@X@X@X#X1X@X+X@X@X{.L.`.[.[.`.[. X#X1X1X1X1X",
"#X1X}.oX.X].'.[.`._._.`.|.|. X#X#X1X1X>X.X`.`._._._._.L._.}.}.@X@X1XoXoXXX{.].[._._._.|.|.|. X@X#X1X",
"[.'.'.U.J.H.H.H.H.J.L.[.[._._._.|.|.`.{.}.`.L.J.L.J.J.K.Y.`.].[.{.'.'.U.J.H.H.H.J.J.L.{.}._._._.|.|.",
"[.XX^.P.K.K.B.V.V.K.K.P.L.'.{.{.`.`.Y.XXU.L.H.V.J.L.V.C.H.K.U.U.{.XX^.P.V.K.A.V.V.B.P.J.L.'.XX{._._.",
"J.P.A.^.K.B.A.D.C.V.B.K.K.K.G.N.B.p w i D.S.D.B.K.K.S.C.C.V.V.P.J.J.A.^.K.B.N.S.C.V.C.K.P.K.S.N.C.p ",
"K.V.D.a S.N.N.S.M.S.M.N.I.W.W.E.Z.p 9 0 F.G.F.W.N.B.N.D.C.B.A.I.B.V.A.M.I.M.D.S.M.S.M.N.S.G.W.E.F.p ",
"D.M.i i h G.(.Z.D.N.0 s Z.R.f F.M.p 0 w Z.W.E.!.R.Z.i N.D.D.R.W.C.h h i h G.~.N.S.N.0 s F.F.f F.M.p ",
"F.i & t i W.E.f W.i * d !.Z.d E.N.a 9 d i Z.b f ~.h 0 i R.F.f n Z.i * e i F.!.g W.p * t E.f d E.N.a ",
"Z.i q l ~.b e n E.g 9 d E.d q v W.g 9 v Z.g d x ~.g * t b g t v T.i q v ~.b e n E.g 9 d E.d 0 v W.g ",
"T.s @ F =Xg & j b i & t b i 9 v &XR.& ; E.p 9 b (.R.9 v !.d & l T.s @ F =Xf & j b i & t E.i ; v &XR.",
"T.s = F qXW.e d (.F.* z !.t ; v qXR.q l *Xf q n 8X!.9 v ~.g & t T.s & F qXR.e j (.F.& z n t ; v 9XR.",
"R.i = : -Xw 0 v ~.~.& z n t & r -Xe = S %Xx = ; -Xt & m *Xb * t T.s & : 8Xw q b (.~.& z S k @ r -Xe ",
"=Xc ; - $ & & F SXe = v n k $ -   >   F DXl - - - X - S AXd 0 g =Xc ; - @ @ * A SXe @ l Q.c & %   > ",
"%Xx @ $ - 3 % u ;Xy = t Q.c q   4 4 o z ;X- . + + + + 3 -X* q j %Xx @ % - 3 % M ;Xy & t x c r % 4 5 ",
"SXD > < M C 6 o 2 % & v *Xc * > Z &.6 > 1 > < 4 6 &.6 5 2 1 @ z SXF , < M C 6 o 2 % # v *Xx = > Z &.",
"ZX< O B :.+.B %.n.C 1 l *Xb = M &.m.V V N < 8 P ;.;.@.B 5 Z 6 > ZX> O 7 :.#.B %.n.Z 1 l *Xb = M +.m.",
"5 4 $.I I O.` *.@.n.. u SXu % V $.@.1.#.B 2.=.J ) ] T ` @.%.Z 4 5 4 $.I I ` ` *.@.%.. l SXe % V $.@.",
"8 P H ! K J T -.*.@.O u ZX= , :.=.J ) I U L K ^ ( T T T J -.G @.8 U J ` R J ) -.*.G O u ZX% , #.=.) ",
"] L W _ I z.f.3.] -.$.O , , B I G ] { K L L ^ ^ ( w.4.J Y f.f.] ` L L { ! f.l. .-.-.#.O , , #.U T ] ",
"G Q J z.,.z. .9.a.0.` P 7 U H ` T g.s.X.o.K ^ 5.y.6.9.X.E k.[ 9.J ~ J z.<.z. .e.g.0.` P 7 2.H ` T g.",
"jXhX<.<.<.<.X.q.5.7.f.) I I J _ g.g.9.h.o.o.q.tXlXVXkXz.[ 5.lXvXzXhX,.<.<.<.X.q.5.7.s.) L I J Q g.d.",
"lXyXo.<.<.z.k.t.5.5.s.Q W ! W ' g.0.g.h.o.o.tXpXMXVXVXpXy.u.bXbXlXi.o.<.z.<.X.t.5.5.9.] W ` R ' d.3.",
"lXuXo.pXhXkXjXjXiXu.9./ W R K } j.s.h.h.8.8.j.fXnXVXVXpXq.yXcXvXzXuXq.pXhXkXjXjXiXu.e.} W W R } f.d.",
"xXp.q.yXcXNXVXbXlXsXe.| ^ K W  .c.h.j.j.9.0.g.fXmXmXMXtXq.t.dXzXxXp.q.pXcXNXvXvXxXuXe.{ ! K R  .l.f.",
"d.7.6.i.lXxXcXbXdXyXk.X..._ } ,.z.,.h.j.h.9.p.v.mXBXMXaX6.q.k.k.g.7.q.i.lXxXcXbXlXi.k.X.} / { ,.z.X.",
"9.a.w.uXxXxXlXcXzXx.e.j.e.X.,. .{ ! ..8.s.9.8.x.fXmXgXt.6.8.,.h.a.a.w.i.xXxXlXcXzXaXh.h.e.e.>. .{ O.",
"g.g.p.x.b.b.xXcXdXyX6.d.d.d.s.} ! K W ~ [ ..6.e.t.q.t.e.8.e.,.,.g.p.r.sXb.b.dXcXdXyX6.s.d.d.s.{ K K ",
"e.p.6.i.b.p.i.yXyXq.9.d.d.d. .~ K W K ^ } ..6.e.q.o.e.e.e.e.X.X.9.p.7.x.b.p.i.yXtXq.9.g.d.d.0._ K ! ",
"zXsXw.r.r.7.q.w.w.e.s.Q Q E ~ R  .f.j.l.j.0.q.t.jXNXgXt.6.t.jXVXzXv.r.w.p.7.6.w.r.e.8.( ( E / R  .h.",
"zXsX4.6.9.7.w.r.9.0.f._ Y Y R Q h.c.8.f.s.9.e.i.dXcXvXx.w.t.zXNXzXsX4.7.w.7.e.r.e.0.f._ R J Y ^ f.c.",
"zXx.w.x.fXzXzXzXc.v.h.' Y Y Y } s.l.f.l.l.j.p.sXzXvXNXsX6.i.nXCXzXi.w.x.fXzXzXkXv.v.h.' R Y Y } f.l.",
"fXr.p.sXnXCXCXBXmXfXf...Q ~ E s.h.j.s.s.s.9.r.i.cXNXNXsX7.t.zXnXsXi.i.v.nXCXCXCXMXfXs...Q ~ E s.d.s.",
"i.r.6.t.v.zXzXnXfXc.j.s.' ../ j.j.f.f.f.l.9.r.x.zXNXsXx.r.t.i.x.i.r.6.u.x.nXzXnXgXx.l.f.' ../ j.l.s.",
"6.r.y.i.zXzXzXzXgXsXl.h.h.l.8.e.| ~ | s.s.s.9.i.iXlX6.r.t.e.[ [ 6.r.r.i.fXzXzXzXgXv.l.h.s.l.e.9.| Q ",
"e.p.i.sXfXzXzXzXzXsXs. .8.h. .} ' R Q ' | | 4.q.y.u.r.e.6.6.e.7.r.p.i.sXsXzXzXzXgXfXh... .h.8.} / E ",
"nXaX4.w.y.w.y.t.w.7.s.Q Q Y ^ E 0.h.s.h.j.9.7.i.lXcXnXp.6.r.nXBXnXx.4.w.y.w.y.i.w.6.s.Q Q R ^ R  .h.",
"nXsXe.y.6.7.6.w.q.6.9.} E R E / 0.j.l.s.j.g.w.i.zXvXzX9.k.x.nXmXMXsXw.y.6.7.6.w.5.6.9...^ Y E / 0.j.",
"BXsXw.x.zXNXvXcXsXi.8./ E Y E | s.s.j.s.j.k.w.uXcXvXmXr.9.i.BXBXBXsXe.x.zXNXvXcXsXx.9.' Y Y E | 8.j.",
"zXt.q.i.zXMXNXnXzXsXs.} E E /  .h.h.j.j.j.9.6.i.vXNXNXr.e.e.nXgXzXt.6.i.zXNXCXMXzXv.s.| E E / 6.h.h.",
"r.6.r.x.zXnXNXBXnXfXj.8.| } | e.e.j.l.j.j.r.6.i.cXvXzXr.r.q.p.w.9.6.t.x.zXzXnXNXnXgXl. .} } ..e.h.h.",
"r.6.r.i.v.zXMXMXfXx.j.h.8.8.6.e.l.l.l.l.g.9.6.i.xXvXlXr.w.w.p.q.y.6.r.i.v.zXMXMXfXx.l.h.8.8.8.e.k.c.",
"cXi.6.9.w.7.r.t.r.7.s.s.e.h.h.k.c.c.l.j.l.r.w.i.cXbXNXt.6.y.nXzXnXi.6.w.e.7.r.k.r.6.9.h.h.e.e.j.l.c.",
"CXfXr.t.r.6.6.6.r.r.s.h.h.j.k.c.c.l.j.j.j.d.y.i.xXvXBXu.q.i.NXNXCXsXt.t.r.6.4.6.e.k.s.h.h.j.k.l.l.k.",
"nXsX7.t.aXi.w.6.w.e.h.s.h.j.c.c.j.h.h.e.j.r.w.i.bXvXvXi.i.i.nXzXnXsX7.t.aXi.w.q.q.r.h.h.h.k.c.c.j.h.",
"fXi.q.sXvXdXyXyXu.y.x.j.s.j.k.j.s.9.9.e.h.e.r.hXnXnXMXhXw.t.fXMXgXi.q.sXvXdXyXyXu.w.x.j.s.h.k.l.s.9.",
"r.6.q.yXgXcXiXlXiXyXk.h.e.j.l.c.j.s.h.h.9.8.e.c.nXVXnXc.e.e.k.k.r.6.q.i.lXcXiXlXiXuXk.h.9.h.c.c.j.s.",
"e.6.r.x.gXzXvXVXcXsXk.j.s.h.j.8.} ' 8.9.s.8.e.sXnXNXh.h.e.e.8.e.e.6.r.x.gXzXNXNXcXsXk.j.8.h.h.8.| ' ",
"h.h.l.x.hXfXgXcXdXx.k.j.h.h.8.| Q Y Y E / | 6.e.e.e.6.8.9.s.s.9.h.h.k.c.hXsXgXcXdXx.k.j.h.j.s.| E Y "
};
