/* XPM */
static char *_37ab522e961418cd79be71473201dd5z8uyziOEosPrQKf7[] = {
/* columns rows colors chars-per-pixel */
"50 50 79 1 ",
"  c None",
". c black",
"X c #090909",
"o c #261D01",
"O c #271E01",
"+ c #291F01",
"@ c #2E2301",
"# c #2F2401",
"$ c #302401",
"% c #312501",
"& c #322601",
"* c #362902",
"= c #372902",
"- c #372A03",
"; c #2A2A2A",
": c gray19",
"> c #313131",
", c #323232",
"< c #373737",
"1 c #584203",
"2 c #5C4603",
"3 c #5D4603",
"4 c #725603",
"5 c #795C03",
"6 c #7D5F04",
"7 c #725D1D",
"8 c #5A5A5A",
"9 c gray36",
"0 c #5F5F5F",
"q c #6F6F6F",
"w c #727272",
"e c #767676",
"r c #797979",
"t c gray49",
"y c #836304",
"u c #906D04",
"i c #967820",
"p c #B78B05",
"a c #BC8F05",
"s c #C29206",
"d c #C49406",
"f c #C69606",
"g c #CF9C06",
"h c #CF9D06",
"j c #DAA710",
"k c #E7AF06",
"l c #E8AF06",
"z c #F8BC07",
"x c #FABE07",
"c c #FDC007",
"v c #FFC107",
"b c #FFC109",
"n c #FFC20C",
"m c #FFC30E",
"M c #FFCD36",
"N c #FFCF3E",
"B c #FFD041",
"V c #FFD043",
"C c #FDDD7E",
"Z c #BAAC81",
"A c #FFE080",
"S c #FFE185",
"D c #FFE186",
"F c #FFE28A",
"G c #CEC5A9",
"H c #D2C8AC",
"J c gray76",
"K c #C6C6C6",
"L c #FAEEC6",
"P c #F9EECC",
"I c #FFF2CA",
"U c #FFF2CB",
"Y c #FFF3CE",
"T c #FFF3D0",
"R c #FFF4D1",
"E c #F8F8F8",
"W c gray98",
"Q c #FFFFFE",
"! c white",
/* pixels */
"                                                  ",
"                                                  ",
"                                                  ",
"                                                  ",
"                                                  ",
"                                                  ",
"                                                  ",
"                  ..............                  ",
"                  ..............                  ",
"              ......0JJJJKJ;........              ",
"              ......t!!!!!!<........              ",
"             ...errrZFFFFFFi5553....              ",
"            ....E!!!Sbvvvvvvvvvd....              ",
"            .X;,PRRRSMMMMMMjhlvh@@..              ",
"            .,!!mvvvC!!!!!!<.yvvvz....            ",
"            .,!!mvvvC!!!!!!<.yvvvx....            ",
"         ....,!!mvvvA!Ibmmb-.ybvvz....            ",
"         ....,!!mvvvA!Ibvvv=.yvvvz....            ",
"         ..0KHNNbvvvA!Ivvvv=.yvvvvff@....         ",
"         ..e!YvvvvvvA!Ivvvv=.yvvvvvv#....         ",
"         ..e!YvvvvvvA!Ivvvv=.yvvvvvv&....         ",
"         ..e!YvvvvvvA!Ivvvv=.yvvvvvv&....         ",
"         ..e!YvvvvvvA!Ivvvv=.yvvvvvv&....         ",
"         ..e!YvvvvvvA!Ivvvv=.yvvvvvv&....         ",
"         ..e!YvvvvvvA!Ivvvv=.yvvvvvv$....         ",
"         ..e!YvvvvvvA!Ivvvv=.yvvvvvv$....         ",
"         ..e!YvvvvvvA!Ivvvv=.yvvvvvv&....         ",
"         ..e!YvvvvvvA!Ivvvv=.yvvvvvv&....         ",
"         ..e!YvvvvvvA!Ivvvv=.yvvvvvv$....         ",
"         ..e!YvvvvvvA!Ivvvv=.yvvvvvv$....         ",
"         ..e!YvvvvvvA!Ivvvv=.yvvvvvv=....         ",
"         ..8JGVVbvvvA!Ivvvv=.yvvvvsso....         ",
"         ....,!!mvvvC!Ivvvv=.yvvvz....            ",
"         ....,!!mvvvCELbxxx=.yvvvx....            ",
"            .,!!mvvvy........yvvvz....            ",
"            .,!!mvvvy........yvvvx....            ",
"            .X,,PTMvkgghhhgggkvh$@..              ",
"            ....E!Vvvvvvvvvvvvvd....              ",
"             ...qw74pvvvvvvu4441....              ",
"              ......6vvvvvv=........              ",
"              ......3aaaaaa+........              ",
"                  ..............                  ",
"                  ..............                  ",
"                                                  ",
"                                                  ",
"                                                  ",
"                                                  ",
"                                                  ",
"                                                  ",
"                                                  "
};
