/* XPM */
static char *result[] = {
/* columns rows colors chars-per-pixel */
"50 50 189 2 ",
"   c #151A1C",
".  c #2C1509",
"X  c #391F10",
"o  c #371F10",
"O  c #3F342B",
"+  c #273537",
"@  c #213C3D",
"#  c #353834",
"$  c #3A3E3B",
"%  c #383733",
"&  c #5A2102",
"*  c #53250B",
"=  c #5D2A0E",
"-  c #552003",
";  c #482E1D",
":  c #5E2E14",
">  c #4B301F",
",  c #652707",
"<  c #622A0E",
"1  c #692806",
"2  c #722900",
"3  c #6F300F",
"4  c #75300C",
"5  c #7D330B",
"6  c #622E14",
"7  c #6B2F10",
"8  c #633116",
"9  c #693315",
"0  c #743313",
"q  c #7D3613",
"w  c #7E3815",
"e  c #4E3321",
"r  c #453B28",
"t  c #433B34",
"y  c #78513C",
"u  c #1F4F4F",
"i  c #1F504F",
"p  c #1F5150",
"a  c #204E4E",
"s  c #2F4B4D",
"d  c #334245",
"f  c #344748",
"g  c #324A4B",
"h  c #3E4A49",
"j  c #2E4F51",
"k  c #214F50",
"l  c #215151",
"z  c #2D5354",
"x  c #2B5A5B",
"c  c #2B5758",
"v  c #286566",
"b  c #2B6B6B",
"n  c #266666",
"m  c #3F6665",
"M  c #2E6F70",
"N  c #2C7374",
"B  c #317575",
"V  c #32797A",
"C  c #444845",
"Z  c #5F4F42",
"A  c #485657",
"S  c #695343",
"D  c #715445",
"F  c #735E54",
"G  c #4E6766",
"H  c #486B6F",
"J  c #486D71",
"K  c #437579",
"L  c #5B777C",
"P  c #786E68",
"I  c #777472",
"U  c #81350C",
"Y  c #8A3A0E",
"T  c #853A14",
"R  c #893B13",
"E  c #8B3E19",
"W  c #833A17",
"Q  c #913E12",
"!  c #8F4019",
"~  c #944015",
"^  c #9C4619",
"/  c #9C481D",
"(  c #954219",
")  c #A34A1C",
"_  c #AA4E1D",
"`  c #944621",
"'  c #9C4A23",
"]  c #9E4D28",
"[  c #984822",
"{  c #9F502B",
"}  c #8C5338",
"|  c #965232",
" . c #995B3A",
".. c #A34D23",
"X. c #AA4F21",
"o. c #A14E28",
"O. c #AC5225",
"+. c #A3522D",
"@. c #A9522A",
"#. c #B25527",
"$. c #BA5B2B",
"%. c #B85727",
"&. c #AA5935",
"*. c #AD5C39",
"=. c #A55531",
"-. c #B45C34",
";. c #BB5E35",
":. c #B45E38",
">. c #A3623D",
",. c #B3623C",
"<. c #BC623B",
"1. c #BD6C3D",
"2. c #C05E2E",
"3. c #C5612D",
"4. c #CA642E",
"5. c #C76333",
"6. c #C96532",
"7. c #C6673B",
"8. c #D96D35",
"9. c #D36A36",
"0. c #965E47",
"q. c #B66341",
"w. c #BA6542",
"e. c #BC6946",
"r. c #BA6C4D",
"t. c #B06A46",
"y. c #B96F51",
"u. c #B87053",
"i. c #B77459",
"p. c #C46B46",
"a. c #CB6D45",
"s. c #D16E44",
"d. c #CE7046",
"f. c #C77149",
"g. c #D37246",
"h. c #DC7545",
"j. c #C57651",
"k. c #C47956",
"l. c #C37D5C",
"z. c #DF7F51",
"x. c #E17946",
"c. c #E17C4B",
"v. c #DF8254",
"b. c #DC875D",
"n. c #C18061",
"m. c #369293",
"M. c #3B9394",
"N. c #308788",
"B. c #3EA4A5",
"V. c #4E8E93",
"C. c #5B8E94",
"Z. c #4F9196",
"A. c #56969C",
"S. c #6E8688",
"D. c #67958F",
"F. c #678F96",
"G. c #6D9096",
"H. c #6D959D",
"J. c #659B95",
"K. c #659CA3",
"L. c #6B9CA4",
"P. c #41A4A6",
"I. c #47ADAF",
"U. c #4BA5A8",
"Y. c #59A8AD",
"T. c #53A4A8",
"R. c #57ADB1",
"E. c #4CB1B4",
"W. c #5EB5BA",
"Q. c #58B8BC",
"!. c #66A5AB",
"~. c #69A4AB",
"^. c #63A8A7",
"/. c #66AAB0",
"(. c #63B5BA",
"). c #62B8BE",
"_. c #61BDC2",
"`. c #48CACB",
"'. c #5CC6CA",
"]. c #5EC8CC",
"[. c #5CCED2",
"{. c #5BD2D5",
"}. c #58DADC",
"|. c #58DADC",
" X c #60C1C5",
".X c #57DEE0",
"XX c #56E2E4",
"oX c #55E7E9",
"OX c None",
/* pixels */
"OXOXOXOXOXOXOXOXOXOXOXOXOXOXOXOXOXOXOXOXOXOXx b n v v b x OXOXOXOXOXOXOXOXOXOXOXOXOXOXOXOXOXOXOXOXOX",
"OXOXOXOXOXOXOXOXOXOXOXOXOXOXOXOXOXOXOXOXb N M..X[.].[..Xm.N b OXOXOXOXOXOXOXOXOXOXOXOXOXOXOXOXOXOXOX",
"OXOXOXOXOXOXOXOXOXOXOXOXOXOXOXOXOXOXb m.U.W._._.!.H.!._.).W.U.m.N OXOXOXOXOXOXOXOXOXOXOXOXOXOXOXOXOX",
"OXOXOXOXOXOXOXOXOXOXOXOXOXOXOXOXN B.R.'.).L.H.K j d j K H.L.(.'.R.B.N OXOXOXOXOXOXOXOXOXOXOXOXOXOXOX",
"OXOXOXOXOXOXOXOXOXOXOXOXOXOXOXV `.W.L.K.T.H # ; * * * ; # m T.K.L.(.`.B OXOXOXOXOXOXOXOXOXOXOXOXOXOX",
"OXOXOXOXOXOXOXOXOXOXOXOXOXOXV (.L.Q.V.$ X - 2 Q [ ` ` W 2 & X # V.Q.H.T.V OXOXOXOXOXOXOXOXOXOXOXOXOX",
"OXOXOXOXOXOXOXOXOXOXOXOXOXN.Q.H.H.G r 1 5 ' +.$.a.e.e.{ $.X.U , r G H.~.Q.N.OXOXOXOXOXOXOXOXOXOXOXOX",
"OXOXOXOXOXOXOXOXOXOXOXOXOXB.'.K.L e 4 ' &.w.;.$.a.e.e.o.8.a.:.' 4 e L /.'.P.OXOXOXOXOXOXOXOXOXOXOXOX",
"OXOXOXOXOXOXOXOXOXOXOXOXn T.~.Z.t 4 O.s.p.p.:.$.d.e.e.o.8.a.a.a...4 r A.!.Y.b OXOXOXOXOXOXOXOXOXOXOX",
"OXOXOXOXOXOXOXOXOXOXOXOXM.~.F.$ - [ #.h.p.a.*.$.g.a.r.{ 8.f.a.s...O.- A F.K.M.OXOXOXOXOXOXOXOXOXOXOX",
"OXOXOXOXOXOXOXOXOXOXOXb E.'.C.o q o.#.s.p.a.&.$.g.d.p.] 8.p.a.s.o.2.W t C._.E.M OXOXOXOXOXOXOXOXOXOX",
"OXOXOXOXOXOXOXOXOXOXOXN _./.h 1 +.=.#.s.s.s.&.$.g.s.p.] 8.e.p.a.o.5.=.* h /._.M OXOXOXOXOXOXOXOXOXOX",
"OXOXOXOXOXOXOXOXOXOXOXb (.H.% ( w.&.#.a.p.p.&.$.g.s.p.o.8.p.e.p.o.5.e.9 % F.(.B OXOXOXOXOXOXOXOXOXOX",
"OXOXOXOXOXOXOXOXOXOXz I.).J > +.p.=.#.a.p.p.&.$.h.a.p.o.8.p.p.a.@.5.e.E > H (.I.l OXOXOXOXOXOXOXOXOX",
"OXOXOXOXOXOXOXOXOXOXl .X Xx 8 a.e.&.#.a.e.e.&.2.h.p.p.o.8.p.e.a.X.5.p.+.: c  XXXl OXOXOXOXOXOXOXOXOX",
"OXOXOXOXOXOXOXOXOXOXa [.L.f 9 8.q.+.X.p.q.q.+.%.s.q.p.o.6.w.q.w...2.q.=.6 d ~. Xp OXOXOXOXOXOXOXOXOX",
"OXOXOXOXOXOXOXOXOXOXa ].D.y ! O...[ ) ..o...[ ) X.....^ _ ......E X...' W D G. Xl OXOXOXOXOXOXOXOXOX",
"OXOXOXOXOXOXOXOXOXOXp XXJ.1.x.h.b.c.x.x.z.z.x.x.x.b.z.x.x.c.v.z.x.x.z.z.h.,.J..Xp OXOXOXOXOXOXOXOXOX",
"OXOXOXOXOXOXOXOXOXOXp }.J.1.a.e.i.e.w.e.u.y.e.e.e.i.y.w.e.e.y.y.e.e.y.y.w. .D.}.p OXOXOXOXOXOXOXOXOX",
"OXOXOXOXOXOXOXOXOXOXi ].H.Z 4 U 5 5 U U 5 5 5 U U U 5 5 5 5 U q 5 5 U 5 3 Z G.].l OXOXOXOXOXOXOXOXOX",
"OXOXOXOXOXOXOXOXOXOXl [.~.g = ..` E Q ..` ` E Q ' ` [ E ) ` ` ` T Q ' E : f L.[.p OXOXOXOXOXOXOXOXOX",
"OXOXOXOXOXOXOXOXOXOXl .X_.z 9 x.e.=.%.g.p.e.*.$.h.p.p.@.8.p.e.w.o.5.s.;.8 z _..Xp OXOXOXOXOXOXOXOXOX",
"OXOXOXOXOXOXOXOXOXOXl [.~.g 9 h.0.| #.g.p.p.&.$.g.p.a.@.8.e.e.e.] 5.g.-.8 f L.[.i OXOXOXOXOXOXOXOXOX",
"OXOXOXOXOXOXOXOXOXOXa ].H.f 9 e.P } @.s.a.p.&.$.g.p.a.o.8.p.p.e.o.5.s.-.6 d L. Xa OXOXOXOXOXOXOXOXOX",
"OXOXOXOXOXOXOXOXOXOXl }._.z 9 r.P y @.a.p.p.&.$.g.s.s.+.8.p.p.p.] 5.d.-.8 j _.|.l OXOXOXOXOXOXOXOXOX",
"OXOXOXOXOXOXOXOXOXOXl }.).z 9 x.D | #.a.p.a.&.$.s.a.s.+.8.p.p.p.o.6.g.-.8 j _..Xp OXOXOXOXOXOXOXOXOX",
"OXOXOXOXOXOXOXOXOXOXk ].H.d 9 h.D | #.a.e.p.*.$.s.a.d.o.8.p.a.p.] 5.d.-.8 d L.].a OXOXOXOXOXOXOXOXOX",
"OXOXOXOXOXOXOXOXOXOXl {.!.s 9 h.D | #.f.e.a.:.$.d.a.a.+.8.p.a.p.] 5.p.-.8 f L.{.u OXOXOXOXOXOXOXOXOX",
"OXOXOXOXOXOXOXOXOXOXl XX].c 9 g.F } O.a.e.e.;.$.s.a.a.+.8.a.d.a.o.5.p.;.8 c '.XXp OXOXOXOXOXOXOXOXOX",
"OXOXOXOXOXOXOXOXOXOXk {./.j 9 t.I D O.a.e.e.;.$.s.a.a.+.8.a.s.d.o.5.a.;.8 g /.{.a OXOXOXOXOXOXOXOXOX",
"OXOXOXOXOXOXOXOXOXOXu ].H.d 9 g.F } #.a.e.e.;.$.d.e.p.{ 8.f.a.a.o.5.p.:.6 d H.].p OXOXOXOXOXOXOXOXOX",
"OXOXOXOXOXOXOXOXOXOXk |._.j 8 x.w.&.#.a.e.e.;.$.d.e.e.o.8.s.a.p.o.5.e.&.8 g ).}.a OXOXOXOXOXOXOXOXOX",
"OXOXOXOXOXOXOXOXOXOXl XX'.c 9 x.e.=.#.a.e.e.<.%.d.e.e.] 8.d.p.a...5.e.&.8 z ].XXi OXOXOXOXOXOXOXOXOX",
"OXOXOXOXOXOXOXOXOXOXl ].H.h 9 7.*.+._ ,.*.:.+.X.<.*.*./ 3.<.,.-./ $.*.{ 8 f H.].p OXOXOXOXOXOXOXOXOX",
"OXOXOXOXOXOXOXOXOXOXa ].D. .$.4.5.3.3.6.3.6.5.3.4.4.5.$.4.4.6.6.3.4.6.3.$. .S.].p OXOXOXOXOXOXOXOXOX",
"OXOXOXOXOXOXOXOXOXOXl oX^.e.9.a.n.p.a.a.l.f.a.a.f.n.j.f.a.f.k.k.7.a.k.k.7.>.^.oXi OXOXOXOXOXOXOXOXOX",
"OXOXOXOXOXOXOXOXOXOXl ].S.>.@.+.+.+.=.+.=.+.+.=.+.+.+.+.+.+.+.+.+.+.+.+.{ 0.S.].p OXOXOXOXOXOXOXOXOX",
"OXOXOXOXOXOXOXOXOXOXp ].H.C < ~ R U U R R W U U Y R T 5 R T R T 5 T T 5 = C H.].a OXOXOXOXOXOXOXOXOX",
"OXOXOXOXOXOXOXOXOXOXl }.(.z 8 8.7.o.X.<.<.,.+.O.7.<.<.' 4.<.<.<.[ $.,.+.: j (.{.i OXOXOXOXOXOXOXOXOX",
"OXOXOXOXOXOXOXOXOXOXp oX{.x 9 x.a.&.#.a.p.p.&.$.g.d.a.+.8.p.a.a.o.6.e.&.: x {.oXp OXOXOXOXOXOXOXOXOX",
"OXOXOXOXOXOXOXOXOXOXa ].H.d 9 x.p.-.#.s.a.r.&.$.g.p.a.@.8.p.p.p.] 5.e.&.6 d H.'.p OXOXOXOXOXOXOXOXOX",
"OXOXOXOXOXOXOXOXOXOXa '.H.d 9 x.e.*.#.s.p.p.&.2.h.p.p.@.8.p.e.e.] 5.e.&.6 d H.'.a OXOXOXOXOXOXOXOXOX",
"OXOXOXOXOXOXOXOXOXOX@ a +   . W E q 7 ( E E 0 < Q E E 6 w E E E 6 W E w .   + a @ OXOXOXOXOXOXOXOXOX",
"OXOXOXOXOXOXOXOXOXOXOXOXOXOXOXOXOXOXOXOXOXOXOXOXOXOXOXOXOXOXOXOXOXOXOXOXOXOXOXOXOXOXOXOXOXOXOXOXOXOX",
"OXOXOXOXOXOXOXOXOXOXOXOXOXOXOXOXOXOXOXOXOXOXOXOXOXOXOXOXOXOXOXOXOXOXOXOXOXOXOXOXOXOXOXOXOXOXOXOXOXOX",
"OXOXOXOXOXOXOXOXOXOXOXOXOXOXOXOXOXOXOXOXOXOXOXOXOXOXOXOXOXOXOXOXOXOXOXOXOXOXOXOXOXOXOXOXOXOXOXOXOXOX",
"OXOXOXOXOXOXOXOXOXOXOXOXOXOXOXOXOXOXOXOXOXOXOXOXOXOXOXOXOXOXOXOXOXOXOXOXOXOXOXOXOXOXOXOXOXOXOXOXOXOX",
"OXOXOXOXOXOXOXOXOXOXOXOXOXOXOXOXOXOXOXOXOXOXOXOXOXOXOXOXOXOXOXOXOXOXOXOXOXOXOXOXOXOXOXOXOXOXOXOXOXOX",
"OXOXOXOXOXOXOXOXOXOXOXOXOXOXOXOXOXOXOXOXOXOXOXOXOXOXOXOXOXOXOXOXOXOXOXOXOXOXOXOXOXOXOXOXOXOXOXOXOXOX",
"OXOXOXOXOXOXOXOXOXOXOXOXOXOXOXOXOXOXOXOXOXOXOXOXOXOXOXOXOXOXOXOXOXOXOXOXOXOXOXOXOXOXOXOXOXOXOXOXOXOX"
};
