/* XPM */
static char *result[] = {
/* columns rows colors chars-per-pixel */
"50 50 204 2 ",
"   c #0F1111",
".  c #1B1B1B",
"X  c #211D1B",
"o  c #1C1F22",
"O  c #1A2B2C",
"+  c #212629",
"@  c #242A2C",
"#  c #2A2D2E",
"$  c #312E2C",
"%  c #292E31",
"&  c #2A3A3D",
"*  c #263336",
"=  c #56260B",
"-  c #4A2C1C",
";  c #452A1C",
":  c #5C331C",
">  c #7D320A",
",  c #7E3106",
"<  c #612C10",
"1  c #6C361A",
"2  c #69351A",
"3  c #72371A",
"4  c #74391A",
"5  c #773715",
"6  c #60290C",
"7  c #773E22",
"8  c #6E4630",
"9  c #604D32",
"0  c #76482B",
"q  c #3B4F54",
"w  c #245656",
"e  c #245758",
"r  c #255B5B",
"t  c #2A595A",
"y  c #344D4E",
"u  c #24605F",
"i  c #256262",
"p  c #2E6565",
"a  c #2D6F70",
"s  c #2D7676",
"d  c #327778",
"f  c #396D6B",
"g  c #425355",
"h  c #7A675B",
"j  c #7A604E",
"k  c #4D6265",
"l  c #496469",
"z  c #4A696C",
"x  c #4C6B67",
"c  c #546A6B",
"v  c #476D71",
"b  c #496E70",
"n  c #467376",
"m  c #43797C",
"M  c #497578",
"N  c #557C70",
"B  c #656963",
"V  c #796D62",
"C  c #7D7767",
"Z  c #6F7770",
"A  c #82360D",
"S  c #89390F",
"D  c #843913",
"F  c #8D3D13",
"G  c #853710",
"H  c #933F11",
"J  c #8E431A",
"K  c #954114",
"L  c #91421A",
"P  c #9B461A",
"I  c #9D491B",
"U  c #92481E",
"Y  c #A24A1C",
"T  c #AC4F1E",
"R  c #AD501F",
"E  c #8D4926",
"W  c #9B4B23",
"Q  c #994E2A",
"!  c #924924",
"~  c #9C5534",
"^  c #995737",
"/  c #8D5532",
"(  c #A44E24",
")  c #A84F21",
"_  c #A55126",
"`  c #AC5124",
"'  c #A1512B",
"]  c #AC5529",
"[  c #AF582F",
"{  c #B55625",
"}  c #B85623",
"|  c #B75827",
" . c #B85827",
".. c #B15729",
"X. c #B55A2C",
"o. c #B95C2D",
"O. c #AA5730",
"+. c #AF5B32",
"@. c #A45D3A",
"#. c #A85D3C",
"$. c #B45B31",
"%. c #B95E33",
"&. c #AC602F",
"*. c #A8613B",
"=. c #BE6033",
"-. c #B3663A",
";. c #B7643A",
":. c #C25E2A",
">. c #C3612F",
",. c #CB632F",
"<. c #C56231",
"1. c #C96330",
"2. c #CC6A3A",
"3. c #C5663A",
"4. c #DB6E36",
"5. c #D36B3A",
"6. c #D26A35",
"7. c #D9723C",
"8. c #CF743A",
"9. c #E5743A",
"0. c #A05E40",
"q. c #9C6344",
"w. c #826955",
"e. c #8A745E",
"r. c #94755B",
"t. c #AC6444",
"y. c #AA6B4E",
"u. c #B66C4C",
"i. c #A6714C",
"p. c #B57249",
"a. c #B46E51",
"s. c #B87355",
"d. c #AD7055",
"f. c #827871",
"g. c #887460",
"h. c #C56B42",
"j. c #CA6E47",
"k. c #C3734B",
"l. c #C5784D",
"z. c #CB7A4D",
"x. c #D37244",
"c. c #DC7445",
"v. c #D27C4D",
"b. c #D5784A",
"n. c #C37A59",
"m. c #EC7C46",
"M. c #F67F42",
"N. c #6C8379",
"B. c #90896B",
"V. c #B68976",
"C. c #D5884A",
"Z. c #CF8050",
"A. c #DF9459",
"S. c #E38C4C",
"D. c #FF8446",
"F. c #FA884A",
"G. c #EA9B5B",
"H. c #F99453",
"J. c #F29D5C",
"K. c #F8914F",
"L. c #FFA25C",
"P. c #FFA760",
"I. c #5A7B82",
"U. c #4C7E83",
"Y. c #398183",
"T. c #368789",
"R. c #3B898B",
"E. c #3D9494",
"W. c #399D9E",
"Q. c #41898A",
"!. c #48888B",
"~. c #598D92",
"^. c #6D8989",
"/. c #668C93",
"(. c #6B939A",
"). c #669697",
"_. c #519FA3",
"`. c #679EA4",
"'. c #6999A0",
"]. c #59A8A7",
"[. c #4CADB0",
"{. c #47B8BA",
"}. c #57B9BD",
"|. c #55A9AD",
" X c #64A4AA",
".X c #64A9AE",
"XX c #67A2A8",
"oX c #63ADB3",
"OX c #62B2B6",
"+X c #62B4B9",
"@X c #62B9BF",
"#X c #51BFC2",
"$X c #61BEC3",
"%X c #5EC2C6",
"&X c #5EC5CA",
"*X c #5DCACD",
"=X c #5ACDD0",
"-X c #56D2D4",
";X c #5AD2D5",
":X c #60C1C6",
">X c #55DFE1",
",X c #55E4E6",
"<X c #52EEEF",
"1X c None",
/* pixels */
"1X1X1X1X1X1X1X1X1X1X1X1X1X1X1X1X1X1X1X1X1X1Xt e w w y : Y J J ! 1X1X1X1X1X1X1X1X1X1X1X1X1X1X1X1X1X1X",
"1X1X1X1X1X1X1X1X1X1X1X1X1X1X1X1X1X1X1Xw a T.{.-X:X}.B.c.H.&.<.=.J 1X1X1X1X1X1X1X1X1X1X1X1X1X1X1X1X1X",
"1X1X1X1X1X1X1X1X1X1X1X1X1X1X1X1X1X1Xi W.[.OX+X%X'.w.x.K.J._ <.=.Y _ 1X1X1X1X1X1X1X1X1X1X1X1X1X1X1X1X",
"1X1X1X1X1X1X1X1X1X1X1X1X1X1X1X1Xi s %X=X+X(.I.!.x ..F.G.C._ <.<.| 3.1 1X1X1X1X1X1X1X1X1X1X1X1X1X1X1X",
"1X1X1X1X1X1X1X1X1X1X1X1X1X1X1XY.{.%X'.).!.f % @ ; ,.H.C.o._ 1.<.} j.9 p 1X1X1X1X1X1X1X1X1X1X1X1X1X1X",
"1X1X1X1X1X1X1X1X1X1X1X1X1X1XY.]..X$X!.q & * @ # 2 m.H.C.| R ,.<.{ j.8 N.Y.1X1X1X1X1X1X1X1X1X1X1X1X1X",
"1X1X1X1X1X1X1X1X1X1X1X1X1Xp .X'.(.I.O @ % % % % 0 D.G.-.} ` 1.<.} c.4 V |.p 1X1X1X1X1X1X1X1X1X1X1X1X",
"1X1X1X1X1X1X1X1X1X1X1X1X1Xs ;XoX/.  % % % % % : 6.D.G.&.} ` >.-.} c.Y i.].d 1X1X1X1X1X1X1X1X1X1X1X1X",
"1X1X1X1X1X1X1X1X1X1X1X1Xd }.`.U.& % % % % # # : 6.D.G.&.o.` <.%.} c.Y *.Z }.s 1X1X1X1X1X1X1X1X1X1X1X",
"1X1X1X1X1X1X1X1X1X1X1Xw E..X/.q # % % % % # $ 0 4.F.A.$.| ` <.%.} c.Y -.V  XE.w 1X1X1X1X1X1X1X1X1X1X",
"1X1X1X1X1X1X1X1X1X1X1Xa [.@XM & @ % % % % % ; O.9.P.Z.$.| ` <.<.} c.( 3.j OX[.a 1X1X1X1X1X1X1X1X1X1X",
"1X1X1X1X1X1X1X1X1X1X1XT.@X Xy + # % % % % % ; o.D.P.z.o...( <.<.} c.` 2./ _.@XR.1X1X1X1X1X1X1X1X1X1X",
"1X1X1X1X1X1X1X1X1X1X1XR.+X/.& + % % % % % % - o.D.P.l.$.{ ( >.>.} c.` 4.4 c }.T.1X1X1X1X1X1X1X1X1X1X",
"1X1X1X1X1X1X1X1X1X1Xt }.XXM @ % % % % % % % - o.4.I L F ` W >.%.} j.` 2.3 l `.%Xu 1X1X1X1X1X1X1X1X1X",
"1X1X1X1X1X1X1X1X1X1Xr <X>XE.@ % % % % % % % - ` T F.m.1.K A ` ( { j.` 2.2 E.-X<Xi 1X1X1X1X1X1X1X1X1X",
"1X1X1X1X1X1X1X1X1X1Xe #X(.k + % % % % % % % - ] { <.t.n.x.h.%...T ] P X.2 k (.:Xt 1X1X1X1X1X1X1X1X1X",
"1X1X1X1X1X1X1X1X1X1Xe $X'.l + % % % % % % % - o.4.I ! @.@.a.k.k.2.2.Y Y 5 c '.:Xt 1X1X1X1X1X1X1X1X1X",
"1X1X1X1X1X1X1X1X1X1Xr ;X}.m + % % % % % % % - o.M.8.! A G Q ~ y.u.n.x.2._ N.@X;Xu 1X1X1X1X1X1X1X1X1X",
"1X1X1X1X1X1X1X1X1X1Xe =X Xn + % % % % % % % - o.F.P.k._ I S S G A ^ @.a.t.Z .X:Xu 1X1X1X1X1X1X1X1X1X",
"1X1X1X1X1X1X1X1X1X1Xw $X(.l + % % % % % % % - o.M.L.l.X.{ ( { Y H F D ! 0 c (.$Xt 1X1X1X1X1X1X1X1X1X",
"1X1X1X1X1X1X1X1X1X1Xe &X`.v + % % % % % % % - o.M.P.v.O.{ ( >.$.R [ F P = c `.:Xr 1X1X1X1X1X1X1X1X1X",
"1X1X1X1X1X1X1X1X1X1Xu ,X-XR.+ % % % % % % % ; o.M.P.l.^ { ( <.%.} j.` 3.1 R.;X,Xi 1X1X1X1X1X1X1X1X1X",
"1X1X1X1X1X1X1X1X1X1Xe $X(.l + % % % % % % % - o.M.P.g.h @._ <.<.} j.` 2.4 k (.$Xt 1X1X1X1X1X1X1X1X1X",
"1X1X1X1X1X1X1X1X1X1Xe $X(.l + % % % % % % % - o.D.P.C f.q.( <.<.} j.` 5.4 l (.$Xt 1X1X1X1X1X1X1X1X1X",
"1X1X1X1X1X1X1X1X1X1Xe ;XOXm + % % % % % % % - o.M.P.e.h #.` <.<.} x.` 5.4 M oX;Xr 1X1X1X1X1X1X1X1X1X",
"1X1X1X1X1X1X1X1X1X1Xe =X.Xn + % % % % % % % - o.M.P.i.8  .` 1.=.} c.` 5.4 b .X=Xr 1X1X1X1X1X1X1X1X1X",
"1X1X1X1X1X1X1X1X1X1Xe $X(.l + % % % % % % % - o.M.P.i.8 o.` <.=.} c.` 2.1 k (.$Xr 1X1X1X1X1X1X1X1X1X",
"1X1X1X1X1X1X1X1X1X1Xe %X'.z + % % % % % % % - $.M.P.p.8  .` <.$.} x.` 2.1 l '.:Xr 1X1X1X1X1X1X1X1X1X",
"1X1X1X1X1X1X1X1X1X1Xr ,X=XR.+ % % % % % % % - o.M.P.i.8  .` 1.<.} j.` 5.4 Q.=X,Xi 1X1X1X1X1X1X1X1X1X",
"1X1X1X1X1X1X1X1X1X1Xe $X(.l + % % % % % % % - o.M.P.g.h *.` <.<. .j.{ 5.3 k (.$Xt 1X1X1X1X1X1X1X1X1X",
"1X1X1X1X1X1X1X1X1X1Xe :X'.z + % % % % % % % - o.M.P.C f.q.( <.<.} c.` 5.3 l '.:Xr 1X1X1X1X1X1X1X1X1X",
"1X1X1X1X1X1X1X1X1X1Xr ;X}.m + % % % % % % % - o.M.P.r.w.#.( <.=.} c.` 2.4 M +X;Xu 1X1X1X1X1X1X1X1X1X",
"1X1X1X1X1X1X1X1X1X1Xr =X Xv + % % % % % % % - o.D.P.s.] X.( <.%.} j.` 2.2 v  X*Xe 1X1X1X1X1X1X1X1X1X",
"1X1X1X1X1X1X1X1X1X1Xe $X(.l + % % % % % % % - o.M.P.v.X. .` <.%.} h.(  .5 B (.$Xr 1X1X1X1X1X1X1X1X1X",
"1X1X1X1X1X1X1X1X1X1Xe &X`.v + % % % % % % % - o.M.P.v.X. .] :.X.` ] H <...0 ^.:Xr 1X1X1X1X1X1X1X1X1X",
"1X1X1X1X1X1X1X1X1X1Xr >X&XR.+ % % % % % % % - o.D.P.v.O.` H Y } { c.c.n.s./ ).>Xi 1X1X1X1X1X1X1X1X1X",
"1X1X1X1X1X1X1X1X1X1Xe $X(.l + % % % % % % % - o.M.P.p.F H :.,.x.x.V.u.a.~ j ^.$Xt 1X1X1X1X1X1X1X1X1X",
"1X1X1X1X1X1X1X1X1X1Xe %X'.l + % % % % % % % - X.,.` o.x.x.k.u.d.' ~ > > = l '.:Xr 1X1X1X1X1X1X1X1X1X",
"1X1X1X1X1X1X1X1X1X1Xr ;X}.m + % % % % % % % - ` T m.v.a.t.0.Q ! A A S Y < M +X;Xr 1X1X1X1X1X1X1X1X1X",
"1X1X1X1X1X1X1X1X1X1Xe &X`.v + % % % % % % % - ..:...Q ! A , H H T <.` 5.3 z `.*Xr 1X1X1X1X1X1X1X1X1X",
"1X1X1X1X1X1X1X1X1X1Xe $X(.l + % % % % % % % - o.9.` A A P F o.o.{ x.` 2.7 k (.#Xr 1X1X1X1X1X1X1X1X1X",
"1X1X1X1X1X1X1X1X1X1Xt _.I.q o + + + @ + @ + - o.9.S.;.( { ( 1.<.{ m.` 3.1 g N ].t 1X1X1X1X1X1X1X1X1X",
"1X1X1X1X1X1X1X1X1X1X1X. . . . . . . . . . . = o.D.P.v.o.{ ` <.$.{ c.) <.7 X . . 1X1X1X1X1X1X1X1X1X1X",
"1X1X1X1X1X1X1X1X1X1X1X1X1X1X1X1X1X1X1X1X1X1X1X1.M.P.l.%. .` <.%.{ j.G W 1X1X1X1X1X1X1X1X1X1X1X1X1X1X",
"1X1X1X1X1X1X1X1X1X1X1X1X1X1X1X1X1X1X1X1X1X1X1X,.M.P.l.X.| _ >.%.Y W 1X1X1X1X1X1X1X1X1X1X1X1X1X1X1X1X",
"1X1X1X1X1X1X1X1X1X1X1X1X1X1X1X1X1X1X1X1X1X1X1X,.D.P.l.X.{ _ | +.5 1X1X1X1X1X1X1X1X1X1X1X1X1X1X1X1X1X",
"1X1X1X1X1X1X1X1X1X1X1X1X1X1X1X1X1X1X1X1X1X1X1X1.M.P.l.O.` ` ! 1X1X1X1X1X1X1X1X1X1X1X1X1X1X1X1X1X1X1X",
"1X1X1X1X1X1X1X1X1X1X1X1X1X1X1X1X1X1X1X1X1X1X1X1.M.P.l.' L 1X1X1X1X1X1X1X1X1X1X1X1X1X1X1X1X1X1X1X1X1X",
"1X1X1X1X1X1X1X1X1X1X1X1X1X1X1X1X1X1X1X1X1X1X1Xo.4.S.-.! 1X1X1X1X1X1X1X1X1X1X1X1X1X1X1X1X1X1X1X1X1X1X",
"1X1X1X1X1X1X1X1X1X1X1X1X1X1X1X1X1X1X1X1X1X1X1X1XW ' E 1X1X1X1X1X1X1X1X1X1X1X1X1X1X1X1X1X1X1X1X1X1X1X"
};
