/* XPM */
static char *result[] = {
/* columns rows colors chars-per-pixel */
"50 50 189 2 ",
"   c #3E1E1E",
".  c #052626",
"X  c #0D2525",
"o  c #002828",
"O  c #0B2E2C",
"+  c #00262F",
"@  c #142323",
"#  c #1E2323",
"$  c #012535",
"%  c #03263B",
"&  c #0A3131",
"*  c #0F333B",
"=  c #123434",
"-  c #1C3834",
";  c #143B3C",
":  c #1A3A39",
">  c #15322E",
",  c #292222",
"<  c #272222",
"1  c #243E3B",
"2  c #283B33",
"3  c #313F36",
"4  c #2A322E",
"5  c #441717",
"6  c #491616",
"7  c #471D1D",
"8  c #571212",
"9  c #5B1212",
"0  c #531B1B",
"q  c #591C1B",
"w  c #710C0C",
"e  c #761414",
"r  c #6B1212",
"t  c #401620",
"y  c #6D1131",
"u  c #762727",
"i  c #2D423C",
"p  c #46493C",
"a  c #4D4D3E",
"s  c #65493F",
"d  c #001D5A",
"f  c #032542",
"g  c #0F3D42",
"h  c #163545",
"j  c #112F58",
"k  c #051777",
"l  c #14117E",
"z  c #001A69",
"x  c #270E6B",
"c  c #5D005D",
"v  c #1D4242",
"b  c #1A4349",
"n  c #234545",
"m  c #214848",
"M  c #284848",
"N  c #384840",
"B  c #354841",
"V  c #2D5252",
"C  c #37585A",
"Z  c #3F5F5F",
"A  c #254255",
"S  c #3F5B77",
"D  c #3F6060",
"F  c #56594D",
"G  c #5D5D50",
"H  c #43514C",
"J  c #695B47",
"K  c #645756",
"L  c #7B634B",
"P  c #6E6757",
"I  c #796D5C",
"U  c #7E705E",
"Y  c #424764",
"T  c #486868",
"R  c #426363",
"E  c #556161",
"W  c #4F7474",
"Q  c #797979",
"!  c #737575",
"~  c #786B62",
"^  c #8A0606",
"/  c #9A0202",
"(  c #9A0F0F",
")  c #940608",
"_  c #851212",
"`  c #8B1514",
"'  c #981414",
"]  c #A10000",
"[  c #AE0000",
"{  c #A70D0D",
"}  c #BA0404",
"|  c #B10B0B",
" . c #BB0A0A",
".. c #A61C1C",
"X. c #BA0038",
"o. c #AE0538",
"O. c #942A2B",
"+. c #CF0707",
"@. c #C50000",
"#. c #D30202",
"$. c #DB0303",
"%. c #E40202",
"&. c #EC0101",
"*. c #E70009",
"=. c #F40101",
"-. c #F80000",
";. c #D73225",
":. c #9F4639",
">. c #90025B",
",. c #8B6B51",
"<. c #906E53",
"1. c #937055",
"2. c #9A7154",
"3. c #A97959",
"4. c #A17556",
"5. c #B17F5F",
"6. c #B2694D",
"7. c #847461",
"8. c #927963",
"9. c #BA7F63",
"0. c #E15D5D",
"q. c #9D826B",
"w. c #A78166",
"e. c #B38262",
"r. c #BC8B6B",
"t. c #B58667",
"y. c #A98870",
"u. c #A28670",
"i. c #BC9378",
"p. c #BA9075",
"a. c #C28E6E",
"s. c #C99474",
"d. c #C2987D",
"f. c #C79678",
"g. c #D29C7C",
"h. c #000F9A",
"j. c #021295",
"k. c #101D88",
"l. c #010EA6",
"z. c #111EA1",
"x. c #1B01B8",
"c. c #0B13B9",
"v. c #2900BB",
"b. c #2B09BA",
"n. c #3209B2",
"m. c #557D8A",
"M. c #0305C4",
"N. c #1900C4",
"B. c #0003D3",
"V. c #0E0AD5",
"C. c #0102DB",
"Z. c #0000E0",
"A. c #AF7084",
"S. c #418399",
"D. c #628181",
"F. c #74888C",
"G. c #599FBA",
"H. c #789BAB",
"J. c #7AA0B2",
"K. c #77C8EC",
"L. c #7AD1F8",
"P. c #868080",
"I. c #809C9C",
"U. c #85A6A6",
"Y. c #8EB0B0",
"T. c #94B3B3",
"R. c #96B8B8",
"E. c #99A7A7",
"W. c #BCA2AF",
"Q. c #AFA4A7",
"!. c #CD9D80",
"~. c #D5A283",
"^. c #DCA585",
"/. c #E0A888",
"(. c #AAC3C3",
"). c #B1C7C7",
"_. c #B4CCCC",
"`. c #AFD0D0",
"'. c #BEDADA",
"]. c #99DAF1",
"[. c #BCDFE1",
"{. c #BEE5E9",
"}. c #C1DFDF",
"|. c #CACCCC",
" X c #C6DEE0",
".X c #C2E6E9",
"XX c #C8E8E8",
"oX c #C7E7E7",
"OX c None",
/* pixels */
"OXOXOXOXOXOXOXOXOXOXOXOXOXOXOXOXOXOXOXOXOXOXo o o o o o o OXOXOXOXOXOXOXOXOXOXOXOXOXOXOXOXOXOXOXOXOX",
"OXOXOXOXOXOXOXOXOXOXOXOXOXOXOXOXOXOXOXOXOXOX  0 0 0 0 0 0 OXOXOXOXOXOXOXOXOXOXOXOXOXOXOXOXOXOXOXOXOX",
"OXOXOXOXOXOXOXOXOXOXOXOXOXOXOXOXOXOXOXo o o _ -.-.-.-.-.%.@ o o OXOXOXOXOXOXOXOXOXOXOXOXOXOXOXOXOXOX",
"OXOXOXOXOXOXOXOXOXOXOXOXOXOXOXOXOXOXo ( +.#.%.-.-.-.-.-.=.+.+.+.< + OXOXOXOXOXOXOXOXOXOXOXOXOXOXOXOX",
"OXOXOXOXOXOXOXOXOXOXOXOXOXOXOXOXOXOX,  .-.-.-.-.-.-.-.-.-.-.-.-.7 , OXOXOXOXOXOXOXOXOXOXOXOXOXOXOXOX",
"OXOXOXOXOXOXOXOXOXOXOXOXOXOXOXOXo   -.-.-.-.-.-.-.-.-.-.-.-.-.-.-.+.. OXOXOXOXOXOXOXOXOXOXOXOXOXOXOX",
"OXOXOXOXOXOXOXOXOXOXOXOXOXOXOXo (  .-.-.-.-.-.-.-.-.-.-.-.-.-.-.-.%.{ 0 o OXOXOXOXOXOXOXOXOXOXOXOXOX",
"OXOXOXOXOXOXOXOXOXOXOXOXOXOXo o %.-.-.-.-.-.-.-.-.-.-.-.-.-.-.-.-.-.-.r o OXOXOXOXOXOXOXOXOXOXOXOXOX",
"OXOXOXOXOXOXOXOXOXOXOXOXOXo _ -.-.-.-.-.-.-.-.-.-.-.-.-.-.-.-.-.-.-.-.-.&.< o OXOXOXOXOXOXOXOXOXOXOX",
"OXOXOXOXOXOXOXOXOXOXOXOXOXo e $.-.-.-.-.-.-.-.-.-.-.-.-.-.-.-.-.-.-.-.&.#.@ o OXOXOXOXOXOXOXOXOXOXOX",
"OXOXOXOXOXOXOXOXOXOXOXOXOXo 9 / =.-.-.-.-.-.-.-.-.-.-.-.-.-.-.-.-.-.-.@./ @ o OXOXOXOXOXOXOXOXOXOXOX",
"OXOXOXOXOXOXOXOXOXOXOXOXOXo 8 ] [ [ [ %.-.-.-.-.-.-.-.-.-.-.-.-.} [ [ ] / @ o OXOXOXOXOXOXOXOXOXOXOX",
"OXOXOXOXOXOXOXOXOXOXOXOXOX- q ^ / / ] $.=.&.&.=.=.&.=.&.&.&.&.&.[ ] ] / ^ 4 - OXOXOXOXOXOXOXOXOXOXOX",
"OXOXOXOXOXOXOXOXOXOXOXo - !.P . ) ] ] ] ] ] ] ] ] ] ] ] ] [ ] ] ] / ] 5 O i.q.o OXOXOXOXOXOXOXOXOXOX",
"OXOXOXOXOXOXOXOXOXOXo P 7.^.y.I 7 6 6 ^ ] ] ] ] ] ] ] ] ] ] ] ] 8 6 6 s U ~.d.I i OXOXOXOXOXOXOXOXOX",
"OXOXOXOXOXOXOXOXOXOXo i././././.> o o w / ] ] ] ] / ] / ] ] ] ] # o o 7././././.N o OXOXOXOXOXOXOXOX",
"OXOXOXOXOXOXOXOXOXOXo 1.5./././.= o o X X X X X X X X X X X X X . o o 7././.g.3.i o OXOXOXOXOXOXOXOX",
"OXOXOXOXOXOXOXOXOXOXo J ,.g.g.g.H 3 o o o o o o o o o o o o o o o o i 8.g.g.r.L 2 o OXOXOXOXOXOXOXOX",
"OXOXOXOXOXOXOXOXOXOXOXo > 4.3.3.^.y.o o o o o o o o o o o o o o o i /.r.3.3.L . OXOXOXOXOXOXOXOXOXOX",
"OXOXOXOXOXOXOXOXOXOXOXOXOX3 3 i 3.t.q.i o o o o o o o o o o o o 7.u.t.J i i 3 OXOXOXOXOXOXOXOXOXOXOX",
"OXOXOXOXOXOXOXOXOXOXOXOXOXo o o 2.t.^.F - o o o o o o o o o O - p.g.3.p o o o OXOXOXOXOXOXOXOXOXOXOX",
"OXOXOXOXOXOXOXOXOXOXOXOXOXOXo o 2.3.3.s.i.O o o o o o . o o F ~.e.3.3.p o OXOXOXOXOXOXOXOXOXOXOXOXOX",
"OXOXOXOXOXOXOXOXOXOXOXOXOXOXo o p J 3.t.9.` _ _ _ _ _ _ _ _ :.a.3.2.a 2 o OXOXOXOXOXOXOXOXOXOXOXOXOX",
"OXOXOXOXOXOXOXOXOXOXOXOXOXOXo o o 2 3.3.6.=.-.-.-.-.-.-.-.-.;.3.3.,.o o o OXOXOXOXOXOXOXOXOXOXOXOXOX",
"OXOXOXOXOXOXOXOXOXOXOXOXOXo e %.%.o.V.V.b.*.-.-.-.-.-.-.-.-.>.V.V.n.%.%.$.# o OXOXOXOXOXOXOXOXOXOXOX",
"OXOXOXOXOXOXOXOXOXOXOXOXOX, ( -.-.X.Z.Z.N.$.&.&.&.&.&.&.%.&.>.C.Z.v.-.-.=.t < OXOXOXOXOXOXOXOXOXOXOX",
"OXOXOXOXOXOXOXOXOXOXOXo # &.-.-.-.X.Z.Z.N./ / ] / ] ] / ] / c Z.Z.v.-.-.=.-.| o OXOXOXOXOXOXOXOXOXOX",
"OXOXOXOXOXOXOXOXOXOXOXo < &.-.-.-.X.Z.Z.V.t 5 5 5 5 5 5 5 5 x Z.Z.v.-.-.-.-.| o OXOXOXOXOXOXOXOXOXOX",
"OXOXOXOXOXOXOXOXOXOXOXo # &.-.-.-.X.Z.B.c.= = = > = = > = = k B.C.v.-.-.-.-.| o OXOXOXOXOXOXOXOXOXOX",
"OXOXOXOXOXOXOXOXOXOXOXo # =.-.-.-.X.Z.z h d.!.!.g.d.g.g.!.!.U $ M.v.-.-.-.-.| o OXOXOXOXOXOXOXOXOXOX",
"OXOXOXOXOXOXOXOXOXOXOXOX# ` | #.( y j.Y P ^.g.s.f.s.s.s.s.^.y.K k.l `  .#.( e o OXOXOXOXOXOXOXOXOXOX",
"OXOXOXOXOXOXOXOXOXOXOXOXOXo 9 / X o o q././.r.3.3.3.3.3.e.^./.^.2 o o 9 / @ o OXOXOXOXOXOXOXOXOXOXOX",
"OXOXOXOXOXOXOXOXOXOXo o o + l x.$ i i.~.^.e.w.3.3.3.3.3.3.e.a.^.!.q.o k.x.% o o o o OXOXOXOXOXOXOXOX",
"OXOXOXOXOXOXOXOXOXOX& & & f h.Z.% B d.d.i.1.1.1.1.1.1.<.1.1.w.i.!.q.o j.C.d f & = & OXOXOXOXOXOXOXOX",
"OXOXOXOXOXOXOXOXo ; T T S C.Z.Z.A M M M M M M M M M M M M M M m M M M z.Z.Z.c.T T R o o OXOXOXOXOXOX",
"OXOXOXOXOXo o o o & n v j C.l.k * * = = = = = = = = = > = = = = & = : d k B.c.v v v o o o o OXOXOXOX",
"OXOXOXOXOX. o O o o o o * B.k o o o & & & & & & & & & & & & & & & & o o o c.l.o o o O o o o O OXOXOX",
"OXOXOXo & D D D R R R Z C f $ o o V `.`.`.`.`.`.`.`.`.`.`.`.`.`.`.R.o o o f h R D D D Z R D V o OXOX",
"OXOXOXo & D D Z Z Z Z Z C + = n C W Y.(.).).).).).).).).).).).).T.H.D V 1 + = R D R Z Z Z R V o OXOX",
"OXOXOXo & M M M M M M M n o H Q [.R.o E ! Q Q Q ! Q Q Q ! ! Q Q = m XXE.! & & M M M M M M M : o OXOX",
"OXOXOXo o & O O = & O & & o D._.oXR.o I._._._._._._._._._.)._._.v m oX'.(.; o & & & O & & & O o OXOX",
"OXOXOXo o o o o o o o o o o F..XXXR.o U.}. X}.'.}.}.}.}.}.}..X Xm m XX.X[.v o o o o o o o o o o OXOX",
"OXOXOXo o o o o o o o o o o S.L..XR.o E Q Q Q Q Q Q Q Q Q Q Q Q = m XX].K.g o o o o o o o o o o OXOX",
"OXOXOXo o o o o o o o o o + G A. XR.o m.H.Q Q Q Q ! ! Q Q Q F.J.g m XXW.A.= o o o o o o o o o o OXOX",
"OXOXOXo o o o o o o o o o o _ =.|.T.X G.].m.Q Q Q Q Q Q Q Q J.L.b M }.0.&.# o o o o o o o o o o OXOX",
"OXOXOXo o o o o o o o o o o 9 [ ..' ^ Q.}.'.}.'.}.}.}.}.'.'..X{.O.) ..{ ] @ o o o o o o o o o o OXOX",
"OXOXOXo o o o o o o o o o o 5 w w w r 8.E.Y.Y.Y.Y.Y.Y.Y.Y.Y.Y.Y.u w w w w @ o o o o o o o o o o OXOX",
"OXOXOXOXOXo o o o o o o o OXo o o o $ o o o o o o o . . o o o o o o o o o OXOXo o o o o o o o OXOXOX",
"OXOXOXOXOXOXOXOXOXOXOXOXOXOXOXOXOXOXOXOXOXOXOXOXOXOXOXOXOXOXOXOXOXOXOXOXOXOXOXOXOXOXOXOXOXOXOXOXOXOX",
"OXOXOXOXOXOXOXOXOXOXOXOXOXOXOXOXOXOXOXOXOXOXOXOXOXOXOXOXOXOXOXOXOXOXOXOXOXOXOXOXOXOXOXOXOXOXOXOXOXOX"
};
