/* XPM */
static char *result[] = {
/* columns rows colors chars-per-pixel */
"50 50 201 2 ",
"   c #3C1B1B",
".  c #271E1E",
"X  c #181F2F",
"o  c #052727",
"O  c #0B2525",
"+  c #012828",
"@  c #0A2E2D",
"#  c #00272D",
"$  c #142424",
"%  c #1D2222",
"&  c #14322B",
"*  c #00233E",
"=  c #002934",
"-  c #0C3232",
";  c #133432",
":  c #1C3834",
">  c #153939",
",  c #1B3B39",
"<  c #0F302D",
"1  c #292121",
"2  c #222323",
"3  c #243B27",
"4  c #283B35",
"5  c #313F36",
"6  c #451313",
"7  c #4A1A17",
"8  c #5C1111",
"9  c #531B1B",
"0  c #571212",
"q  c #530D0D",
"w  c #6B0B0B",
"e  c #790000",
"r  c #7A0A08",
"t  c #6E0013",
"y  c #681515",
"u  c #7A1214",
"i  c #512D2D",
"p  c #2E423C",
"a  c #4A4B3D",
"s  c #504E3F",
"d  c #7C6623",
"f  c #001E55",
"g  c #002543",
"h  c #003648",
"j  c #0B2F4E",
"k  c #101A75",
"l  c #1E4243",
"z  c #1D4057",
"x  c #254646",
"c  c #224848",
"v  c #284848",
"b  c #2A4545",
"n  c #3A4941",
"m  c #2F5151",
"M  c #355555",
"N  c #395B5B",
"B  c #004B79",
"V  c #154B62",
"C  c #3F6060",
"Z  c #424D44",
"A  c #5A584B",
"S  c #5D5D50",
"D  c #494A4C",
"F  c #6A5C49",
"G  c #675050",
"H  c #7A634C",
"J  c #686354",
"K  c #796D5B",
"L  c #7E705E",
"P  c #4B5A7B",
"I  c #7B5873",
"U  c #426363",
"Y  c #486868",
"T  c #577777",
"R  c #697676",
"E  c #840905",
"W  c #980606",
"Q  c #851404",
"!  c #851212",
"~  c #911111",
"^  c #911D1D",
"/  c #A10000",
"(  c #A80808",
")  c #BD0000",
"_  c #B00C0C",
"`  c #BC0A0A",
"'  c #A71313",
"]  c #A03F0D",
"[  c #852727",
"{  c #BA203E",
"}  c #B32A3E",
"|  c #CD0404",
" . c #C40505",
".. c #DA0404",
"X. c #D40505",
"o. c #E40202",
"O. c #EA0101",
"+. c #F30000",
"@. c #F80000",
"#. c #EB1515",
"$. c #F21D1D",
"%. c #F82828",
"&. c #9C431A",
"*. c #BD6D17",
"=. c #AA4F11",
"-. c #8D514F",
";. c #B75353",
":. c #8C6B50",
">. c #866950",
",. c #936E52",
"<. c #9B7154",
"1. c #87684F",
"2. c #A97959",
"3. c #A37758",
"4. c #B47F40",
"5. c #815768",
"6. c #867561",
"7. c #957C66",
"8. c #AD7061",
"9. c #E45F5F",
"0. c #C76464",
"q. c #DD6767",
"w. c #D4921F",
"e. c #CC861C",
"r. c #D89820",
"t. c #C48930",
"y. c #9A806A",
"u. c #AC866B",
"i. c #B88666",
"p. c #B78768",
"a. c #BB9378",
"s. c #AE8B73",
"d. c #C5987C",
"f. c #C9987A",
"g. c #D29C7C",
"h. c #C28E6E",
"j. c #00128C",
"k. c #001193",
"l. c #340383",
"z. c #072990",
"x. c #242780",
"c. c #0209B8",
"v. c #231BB8",
"b. c #3626B0",
"n. c #583D8F",
"m. c #005295",
"M. c #1F56B5",
"N. c #634688",
"B. c #0002D8",
"V. c #120DD0",
"C. c #0000E0",
"Z. c #000BE2",
"A. c #0035E6",
"S. c #095FC1",
"D. c #0073DA",
"F. c #076FC9",
"G. c #296BCF",
"H. c #326BC4",
"J. c #004BEE",
"K. c #077EED",
"L. c #0069ED",
"P. c #748989",
"I. c #718E8E",
"U. c #0080F8",
"Y. c #8E9696",
"T. c #92A7A8",
"R. c #9AB0B0",
"E. c #B4AEAE",
"W. c #A6ABAD",
"Q. c #CD9D80",
"!. c #D3948A",
"~. c #D6A384",
"^. c #DCA585",
"/. c #DBAC91",
"(. c #E0A888",
"). c #E3B296",
"_. c #E0AD90",
"`. c #D3AFA8",
"'. c #E7CCBC",
"]. c #95ABCA",
"[. c #BAC4C4",
"{. c #AFD0D0",
"}. c #91C6F8",
"|. c #91C1ED",
" X c #C8C8C8",
".X c #C2D5D5",
"XX c #C7D9D9",
"oX c #D7DBDA",
"OX c #EED7C9",
"+X c #E7CECA",
"@X c #F0E3DB",
"#X c #C8E8E8",
"$X c #C6E3E3",
"%X c #D6E5E5",
"&X c #E4E7E7",
"*X c #EAECEB",
"=X c #F3E3E3",
"-X c #E6F1F1",
";X c #F7F5F3",
":X c #F8F8F8",
">X c None",
/* pixels */
">X>X>X>X>X>X>X>X>X>X>X>X>X>X>X>X>X>X>X>X>X>X+ # + + + + + >X>X>X>X>X>X>X>X>X>X>X>X>X>X>X>X>X>X>X>X>X",
">X>X>X>X>X>X>X>X>X>X>X>X>X>X>X>X>X>X>X>X>X>X7 9 9 9 9 9 9 >X>X>X>X>X>X>X>X>X>X>X>X>X>X>X>X>X>X>X>X>X",
">X>X>X>X>X>X>X>X>X>X>X>X>X>X>X>X>X>X>X+ # + ! @.@.@.@.@.o.& + + >X>X>X>X>X>X>X>X>X>X>X>X>X>X>X>X>X>X",
">X>X>X>X>X>X>X>X>X>X>X>X>X>X>X>X+ + o ~ | X.o.@.@.@.@.@.+.X.X.| 1 + + >X>X>X>X>X>X>X>X>X>X>X>X>X>X>X",
">X>X>X>X>X>X>X>X>X>X>X>X>X>X>X>X1 1 1 ` @.@.+.O.%.%.%.#.O.@.@.@.7 1 1 2 >X>X>X>X>X>X>X>X>X>X>X>X>X>X",
">X>X>X>X>X>X>X>X>X>X>X>X>X>X+ + o.@.@.@.@.@.| / =X:X:X0./ @.@.@.@.@.@.y + >X>X>X>X>X>X>X>X>X>X>X>X>X",
">X>X>X>X>X>X>X>X>X>X>X>X>X+ y ( +.O.) )  .) 0./.;X;X:X+X/. .) ) )  .@. .' % >X>X>X>X>X>X>X>X>X>X>X>X",
">X>X>X>X>X>X>X>X>X>X>X>X>X+ ! @.@.o.W / W / !.;X:X;X:X:X=X' / W W ) @.@.O.% + >X>X>X>X>X>X>X>X>X>X>X",
">X>X>X>X>X>X>X>X>X>X>X>X>X+ ! @./ r + + + + + + # # + + # + + + + % / ..O.2 o >X>X>X>X>X>X>X>X>X>X>X",
">X>X>X>X>X>X>X>X>X>X>X>X>X+ u ..r y 9 9 9 9 9 9 9 9 9 9 9 9 9 9 9 9 w ( X.% + >X>X>X>X>X>X>X>X>X>X>X",
">X>X>X>X>X>X>X>X>X>X>X>X>Xo 8 W O   @.@.@.@.@.@.@.@.@.@.@.@.@.@.@.| # 8 W $ o >X>X>X>X>X>X>X>X>X>X>X",
">X>X>X>X>X>X>X>X>X>X>X>X>Xo O % r w 1 1 1 1 . . 1 1 1 1 1 1 1 1 1   E 6 % o o >X>X>X>X>X>X>X>X>X>X>X",
">X>X>X>X>X>X>X>X>X>X>X>X>X: @ + E y # ; : l - + : : : < + , 4 , @ $ E   + : : >X>X>X>X>X>X>X>X>X>X>X",
">X>X>X>X>X>X>X>X>X>X>X+ : Q.J + o o o 7./.*XP.+ d.~.~.A > %X+X~.4 + O o @ a.7.+ >X>X>X>X>X>X>X>X>X>X",
">X>X>X>X>X>X>X>X>X>X+ J 6.^.s.K @ : K d.).;XP.+ g.^.(.S > &XOX^.6.J + Z L ~.d.K p >X>X>X>X>X>X>X>X>X",
">X>X>X>X>X>X>X>X>X>X+ a.(.(.(.(.; n (.(.).;XP.+ g./.(.S > &XOX/.(.a.+ 6.(.^.(.(.n + >X>X>X>X>X>X>X>X",
">X>X>X>X>X>X>X>X>X>X+ ,.i.^.(.(.; n (.(.).;X-X&X(.(.(.'.*X;XOX^.(.a.o 6.(.(.g.2.p + >X>X>X>X>X>X>X>X",
">X>X>X>X>X>X>X>X>X>X+ F 1.g.g.g.Z S (.(./.[.oX@X_.(.(.'.@X X`.^.(.d.p 7.g.g.p.H 4 + >X>X>X>X>X>X>X>X",
">X>X>X>X>X>X>X>X>X>X>X+ & 3.2.3.^.(.(.(.d.@ K (.(.(.(.(.g.; S (.(.(.^.h.2.2.H + >X>X>X>X>X>X>X>X>X>X",
">X>X>X>X>X>X>X>X>X>X>X>X>X5 5 5 g.a.Z Z n + F i.i.i.i.i.u.; , n Z S (.K 5 5 4 >X>X>X>X>X>X>X>X>X>X>X",
">X>X>X>X>X>X>X>X>X>X>X>X>X+ + + f.s.4 @ o + s ,.,.,.,.,.>.@ + + & Z g.S + + + >X>X>X>X>X>X>X>X>X>X>X",
">X>X>X>X>X>X>X>X>X>X>X>X>X>X+ o <.i.^.p o + o @ o @ o @ + + + + s.g.2.s + >X>X>X>X>X>X>X>X>X>X>X>X>X",
">X>X>X>X>X>X>X>X>X>X>X>X>X>X>X>Xa F a.H A K p + + + + + < J F s u.u.s p >X>X>X>X>X>X>X>X>X>X>X>X>X>X",
">X>X>X>X>X>X>X>X>X>X>X>X>X>X>X>Xo 4 2.2.2.(.J o + + + + ; g.h.i.2.:.+ >X>X>X>X>X>X>X>X>X>X>X>X>X>X>X",
">X>X>X>X>X>X>X>X>X>X>X>X>X>X>X+ X.} U.V 4 2.3.<.<.<.<.<.<.i.F o F.H.o.y # >X>X>X>X>X>X>X>X>X>X>X>X>X",
">X>X>X>X>X>X>X>X>X>X>X>X>X>X2 1 O.{ U.B j 1.:.:.:.:.:.:.:.:.A h K.G.@.! 1 >X>X>X>X>X>X>X>X>X>X>X>X>X",
">X>X>X>X>X>X>X>X>X>X>X>X>X+ ! @.@.{ U.U.D.= o # + + + + + + B U.K.G.+.+.O.% # >X>X>X>X>X>X>X>X>X>X>X",
">X>X>X>X>X>X>X>X>X>X>X>X>X+ ! @.| } }.}.|.T.-.~ ~ ~ ~ ~ ^ Y.].}.}.]. .o.+.% + >X>X>X>X>X>X>X>X>X>X>X",
">X>X>X>X>X>X>X>X>X>X>X>X>X+ ! @.' ;.;X:X:X:Xq.o.o.o.o.o.#.@X:X:X:X+X' X.O.% + >X>X>X>X>X>X>X>X>X>X>X",
">X>X>X>X>X>X>X>X>X>X>X>X>X+ 8 / [.oX:X:X:X:XY.$ $ $ & $ 4 &X:X:X;X;X.X;./ $ + >X>X>X>X>X>X>X>X>X>X>X",
">X>X>X>X>X>X>X>X>X>X>X>X>X+   8 I.R.-X-X%XT.S 7 o + + 1 7 Y.[.-X-X$XI.G 8 $ >X>X>X>X>X>X>X>X>X>X>X>X",
">X>X>X>X>X>X>X>X>X>X>X>X>X>X+ + + M #X#X{.- 0 / O + + 0 W o T #X#X{.+ + + >X>X>X>X>X>X>X>X>X>X>X>X>X",
">X>X>X>X>X+ + + + + + + + >X+ + F.S.l l z c.k % o + + $ X c.z.b c V D.B # >X>X+ + + # + + + + >X>X>X",
">X>X>X>X>X- - - - - - - - >Xh h L.S.3 3 4 v.k g + + # = g v.k 5 3 x L.m.l >X>X- - - - - - - - >X>X>X",
">X>X>X+ - Y Y Y Y Y Y Y C + m.U.Z.b.r.r.r.w.N.B.= # o k.V.t.r.r.r.4.B.J.U.= > Y Y Y Y Y Y Y M + >X>X",
">X>X>X+ - M M M M M M M m - z.A.I -.] ] &.&.-.5.@ o # D I &.] ] =.&.I b.A.* > M M M M M M M v + >X>X",
">X>X>X+ @ x v c x x x c l + j.C.t.*.e e e e =.w.$ + + d e.E e e e Q w.n.B.* - x x x x c v c l + >X>X",
">X>X>X+ + # @ # @ + @ @ - + j.C.u r e e e e r Q O + o 7 Q e e e e r Q l.B.* + + @ + @ @ + @ + + >X>X",
">X>X>X+ + + @ - - - < - - + j.C.t e e e e e e e O + + 6 e e e e e e e l.B.* @ - - - - - - + + + >X>X",
">X>X>X+ + + , v v x v v c + j.C.t e e e e e e e O + + 6 e e e e e e e l.B.g - x x x v x x @ + + >X>X",
">X>X>X+ + + v C C C C C N + g f W.E.E.E.E.E.E.E.- o o R E.E.E.E.E.E.W.N.f # > N C U C C N @ + + >X>X",
">X>X>X+ + # m Y Y U U Y N @ O O {.$X.X.X.X.X.X.X- + o I..X.X.X.X.X$X#XT O + > Y Y U U Y U - + + >X>X",
">X>X>X+ + + , v x v v v x o 0 W .XE.e e e e e e O + + 6 e e e e r u #X;.W $ - v x v v v x @ + + >X>X",
">X>X>X>X+ + - > > > > > > + w | XXW.6 w e e e e O + o 6 e e e e q s #X0.) % @ > > > > > > + + + >X>X",
">X>X>X>X>X+ + + + + + + o + ! @. XR.O 8 E e e e $ O o 6 e e e e % v $X9.O.% + + + + + + + + + >X>X>X",
">X>X>X>X>X+ + o o + # + + o % >X$.#...o.O.O.O.O.......O.O.O.O.O.....$.>X>Xo + + + # + o + + + >X>X>X",
">X>X>X>X>X+ + + + + + o + + >X>X_ _ _ _ _ _ _ _ _ _ _ _ _ _ _ _ _ _ _ >X>X+ + + o + + + + + + >X>X>X",
">X>X>X>X>X>Xo + o + + + + >X>X>X+ + o # o o + + + + + + + + + + + + o >X>X>X>Xo + + + o + >X>X>X>X>X",
">X>X>X>X>X>X>X>X>X>X>X>X>X>X>X>X>X>X>X>X>X>X>X>X>X>X>X>X>X>X>X>X>X>X>X>X>X>X>X>X>X>X>X>X>X>X>X>X>X>X",
">X>X>X>X>X>X>X>X>X>X>X>X>X>X>X>X>X>X>X>X>X>X>X>X>X>X>X>X>X>X>X>X>X>X>X>X>X>X>X>X>X>X>X>X>X>X>X>X>X>X"
};
