/* XPM */
static char *result[] = {
/* columns rows colors chars-per-pixel */
"50 50 195 2 ",
"   c #1E1E1E",
".  c #371B1B",
"X  c #291B1B",
"o  c #161D3C",
"O  c #23153D",
"+  c #052727",
"@  c #0D2525",
"#  c #012828",
"$  c #0B2E2C",
"%  c #142323",
"&  c #1B2121",
"*  c #192D2D",
"=  c #0F312F",
"-  c #17332A",
";  c #002634",
":  c #0C3232",
">  c #123534",
",  c #1C3632",
"<  c #1C3834",
"1  c #143939",
"2  c #1B3E3E",
"3  c #162F3F",
"4  c #292121",
"5  c #263C37",
"6  c #313F36",
"7  c #322725",
"8  c #570C0C",
"9  c #421515",
"0  c #451919",
"q  c #561313",
"w  c #531B1B",
"e  c #591417",
"r  c #6B0606",
"t  c #730202",
"y  c #780000",
"u  c #7A0A0A",
"i  c #710C0C",
"p  c #741515",
"a  c #5A123C",
"s  c #630028",
"d  c #463232",
"f  c #324234",
"g  c #484B3D",
"h  c #514135",
"j  c #001E56",
"k  c #002147",
"l  c #003648",
"z  c #052B58",
"x  c #0B127F",
"c  c #7F3E79",
"v  c #1E4242",
"b  c #1B4C5B",
"n  c #244545",
"m  c #2A4A4A",
"M  c #264948",
"N  c #384840",
"B  c #324D4D",
"V  c #325454",
"C  c #3D5555",
"Z  c #3F5E5E",
"A  c #335858",
"S  c #0F4B71",
"D  c #3F6060",
"F  c #2E6877",
"G  c #414D44",
"H  c #465046",
"J  c #595647",
"K  c #4C5C5A",
"L  c #5A5252",
"P  c #665B49",
"I  c #785048",
"U  c #6A6556",
"Y  c #786B5A",
"T  c #77614A",
"R  c #496868",
"E  c #436363",
"W  c #556262",
"Q  c #5D6969",
"!  c #567979",
"~  c #646C6C",
"^  c #6D7171",
"/  c #687A7A",
"(  c #747575",
")  c gray47",
"_  c #767B7B",
"`  c #850404",
"'  c #8B0000",
"]  c #9A0101",
"[  c #970306",
"{  c #841212",
"}  c #8E1C1C",
"|  c #911111",
" . c #A10000",
".. c #AD0000",
"X. c #B00C0C",
"o. c #BB0204",
"O. c #A71515",
"+. c #9D3A0C",
"@. c #8C3333",
"#. c #C60101",
"$. c #CF0707",
"%. c #C00B0A",
"&. c #D30202",
"*. c #D90303",
"=. c #E30303",
"-. c #EC0101",
";. c #EE0009",
":. c #F30000",
">. c #F80000",
",. c #F31212",
"<. c #F82929",
"1. c #C57E1B",
"2. c #8C6B50",
"3. c #936E52",
"4. c #9D7456",
"5. c #84654C",
"6. c #AB7B5B",
"7. c #A17556",
"8. c #837360",
"9. c #8B7864",
"0. c #937C67",
"q. c #AF7878",
"w. c #C87272",
"e. c #B48521",
"r. c #AD8122",
"t. c #D08B1D",
"y. c #A29256",
"u. c #9D826B",
"i. c #B88666",
"p. c #B38262",
"a. c #A88870",
"s. c #BC9378",
"d. c #B88F74",
"f. c #C28E6E",
"g. c #C69779",
"h. c #D29C7C",
"j. c #23009F",
"k. c #000DA4",
"l. c #000CAA",
"z. c #000AB3",
"x. c #091A92",
"c. c #00589A",
"v. c #005BA1",
"b. c #5F4888",
"n. c #437985",
"m. c #0404C6",
"M. c #1800C4",
"N. c #0003D2",
"B. c #0005D9",
"V. c #0000E0",
"C. c #0008E1",
"Z. c #0010E3",
"A. c #0019E5",
"S. c #0071D5",
"D. c #0076DF",
"F. c #0058F1",
"G. c #007BF7",
"H. c #0077F6",
"J. c #007AEA",
"K. c #2868C9",
"L. c #5C8080",
"P. c #728787",
"I. c #768989",
"U. c #759898",
"Y. c #749494",
"T. c #678685",
"R. c #0080F8",
"E. c #5AA6C4",
"W. c #6EC2E7",
"Q. c #828787",
"!. c #869999",
"~. c #998787",
"^. c #91A1A1",
"/. c #A2B4B4",
"(. c #B0BBBB",
"). c #D08686",
"_. c #CD9D80",
"`. c #CC8B8B",
"'. c #D7A283",
"]. c #DCA585",
"[. c #E0A888",
"{. c #D3B4A8",
"}. c #E7C8B6",
"|. c #B6C5C5",
" X c #B7D8D8",
".X c #CEDDDC",
"XX c #E6CFCF",
"oX c #C3E2E2",
"OX c #CAE8E8",
"+X c #D3E6E6",
"@X c #EEEFEF",
"#X c #F4F7F7",
"$X c #F8F8F8",
"%X c #EAEAEA",
"&X c None",
/* pixels */
"&X&X&X&X&X&X&X&X&X&X&X&X&X&X&X&X&X&X&X&X&X&X# # # # # # # &X&X&X&X&X&X&X&X&X&X&X&X&X&X&X&X&X&X&X&X&X",
"&X&X&X&X&X&X&X&X&X&X&X&X&X&X&X&X&X&X&X&X&X&X0 w w w w w w &X&X&X&X&X&X&X&X&X&X&X&X&X&X&X&X&X&X&X&X&X",
"&X&X&X&X&X&X&X&X&X&X&X&X&X&X&X&X&X&X&X&X&X# { :.>.>.>.>.=.* # # # # &X&X&X&X&X&X&X&X&X&X&X&X&X&X&X&X",
"&X&X&X&X&X&X&X&X&X&X&X&X&X&X&X&X&X&X&X&X&X+ { :.>.>.>.>.:.&.$.$.$.X.# # # &X&X&X&X&X&X&X&X&X&X&X&X&X",
"&X&X&X&X&X&X&X&X&X&X&X&X&X&X&X&X&X&X&X&X&X# @.<.-.-.-.-.-.-.-.>.>.*.4 4 4 &X&X&X&X&X&X&X&X&X&X&X&X&X",
"&X&X&X&X&X&X&X&X&X&X&X&X&X&X&X&X&X&X&X&X&X# !.$XO. .] ] ]  .#.>.>.>.>.>.-.& # &X&X&X&X&X&X&X&X&X&X&X",
"&X&X&X&X&X&X&X&X&X&X&X&X&X&X&X&X&X&X&X&X&X# !.$X{.`.` ` ` ' ] o.o.#.>.>.>.X.{ # &X&X&X&X&X&X&X&X&X&X",
"&X&X&X&X&X&X&X&X&X&X&X&X&X&X&X&X&X&X&X&X&X# !.$X$XXXy y y y '  . ...>.>.>.>.X.# &X&X&X&X&X&X&X&X&X&X",
"&X&X&X&X&X&X&X&X&X&X&X&X&X&X&X&X&X&X&X# # # # # # # # # # # . y y y  . ...-.>.>.. # &X&X&X&X&X&X&X&X",
"&X&X&X&X&X&X&X&X&X&X&X&X&X&X&X&X&X&X&Xw w w w w w w w w w w 0 8 8 8 [ ' [ &.=.>.0 # &X&X&X&X&X&X&X&X",
"&X&X&X&X&X&X&X&X&X&X&X&X&X&X&X&X&X&X# X.>.>.>.>.>.>.>.>.>.:.| # # % y y y [ o.>.7 + # # &X&X&X&X&X&X",
"&X&X&X&X&X&X&X&X&X&X&X&X&X&X&X&X# # # u  .4 4 4 4 4 4 4 4 4 p $.$.X.% % & t ' ..$.$.&.p # &X&X&X&X&X",
"&X&X&X&X&X&X&X&X&X&X&X&X&X&X&X&X# # # i u # = < 1 v v 1 , # e *.*.X.5 < < r y ] *.-.-.{ # &X&X&X&X&X",
"&X&X&X&X&X&X&X&X&X&X&X&X&X&X&X&X&X&X&X# $ # Y '. XoXoX{.g.> + + + 5 ].'._., X y ]  ...q # &X&X&X&X&X",
"&X&X&X&X&X&X&X&X&X&X&X&X&X&X&X&X&X&X&X&X# # Y [.T.U.@X}.'.8.H # U 9.[.[.].P h . `  .] q # &X&X&X&X&X",
"&X&X&X&X&X&X&X&X&X&X&X&X&X&X&X&X&X&X&X&X&X# Y ].: M $X}.[.[.8.# s.[.[.].].p.T # u  . .q # &X&X&X&X&X",
"&X&X&X&X&X&X&X&X&X&X&X&X&X&X&X&X&X&X# # + # Y [.> m $X}.[.[.8.$ s.].[.[.].6.T # @ @ @ @ &X&X&X&X&X&X",
"&X&X&X&X&X&X&X&X&X&X&X&X&X&X&X&X&X&XN N N f 0.[.H K |.{.[.[.8.# s.].h.h.h.2.J # # # # &X&X&X&X&X&X&X",
"&X&X&X&X&X&X&X&X&X&X&X&X&X&X&X&X# N [.[.[.[.[.].[.s.# 8.[.[.8.# s.'.6.7.7.> # # # # &X&X&X&X&X&X&X&X",
"&X&X&X&X&X&X&X&X&X&X&X&X&X&X&X&X# f i.i.i.i.Y G H f # 8.[.[.g.u.'.g.6 6 6 + # # # # &X&X&X&X&X&X&X&X",
"&X&X&X&X&X&X&X&X&X&X&X&X&X&X&X&X# 5 2.3.3.3.g # # # < 0.[.[.[.[.].d.- $ # # # # # # &X&X&X&X&X&X&X&X",
"&X&X&X&X&X&X&X&X&X&X&X&X&X&X&X&X&X&X$ $ + $ # # # 5 '.].[.[.[.[.6.6.7.g # # # # &X&X&X&X&X&X&X&X&X&X",
"&X&X&X&X&X&X&X&X&X&X&X&X&X&X&X&X&X&X&X# # # # # U 9.[.[.[.f.f.f.P g g 5 # # &X&X&X&X&X&X&X&X&X&X&X&X",
"&X&X&X&X&X&X&X&X&X&X&X&X&X&X&X&X&X&X&X# # # # # _.[.[.[.].6.7.6.- # # # # &X&X&X&X&X&X&X&X&X&X&X&X&X",
"&X&X&X&X&X&X&X&X&X&X&X&X&X&X&X&X&X&X&X# # # g 4.6.p.6.6.7., $ = %.=.=.b.D.l # &X&X&X&X&X&X&X&X&X&X&X",
"&X&X&X&X&X&X&X&X&X&X&X&X&X&X&X&X&X&X&Xm m m P 2.2.2.2.2.5.7 4 4 *.>.>.c K.z k &X&X&X&X&X&X&X&X&X&X&X",
"&X&X&X&X&X&X&X&X&X&X&X&X&X&X&X&X# # # (.$X$XP.# # # # # % =.>.>.>.>.>.:.;.M.l.# &X&X&X&X&X&X&X&X&X&X",
"&X&X&X&X&X&X&X&X&X&X&X&X&X&X&X# # n ^.+X$X$X|.U.} | | | | :.>.>.>.>.>.*.o.M.l.+ # # &X&X&X&X&X&X&X&X",
"&X&X&X&X&X&X&X&X&X&X&X&X&X&X# # # Z #X#X#X#X+X X,.>.>.>.>.>.>.>.:.:.:.#.[ M.l.# : > &X&X&X&X&X&X&X&X",
"&X&X&X&X&X&X&X&X&X&X&X&X&X# # # # A OXOXOXOXT.1 =.>.>.>.>.>.>.>.......] [ M.l.# 0.g.# &X&X&X&X&X&X&X",
"&X&X&X&X&X&X&X&X&X&X&X&X&X# # # F n.U.U.U.U.L 0 #.&.&.&.&.&.&.&...]  .u e m.l.# a._.# # &X&X&X&X&X&X",
"&X&X&X&X&X&X&X&X&X&X&X# # # # # W.E.# # # # q  . . . . . . . . . . . .0 ; N.l.# a.h.# # &X&X&X&X&X&X",
"&X&X&X&X&X&X# # # # # # - r.e.e.M S S.S.S.S.S & & . ]  . .]  . .. 4 & x m.B.l.# a._.# # &X&X&X&X&X&X",
"&X&X&X&X&X&X: : : : : # - 1.1.t.f b R.R.R.R.c.l l 3 ` ` ` ` ` ` k k k k.V.V.l.# a._.# v &X&X&X&X&X&X",
"&X&X&X&X&X# V R R R R : @ t t y t.y.R.R.R.R.R.R.R.S.# # # # # # m.V.B.V.V.V.l.# a.h.# L.OXOXOX&X&X&X",
"&X&X&X&X&X# n V v v v $ @ t y y +.I R.R.R.R.R.R.R.J.v.v.v.v.v.v.B.V.V.V.V.V.l.# H L # M ! ! ! &X&X&X",
"&X&X&X&X&X# 2 M $ # # # @ t t y y a R.G.G.G.G.G.R.R.R.R.R.R.G.G.A.B.V.V.V.B.k.# # # + # # # # &X&X&X",
"&X&X&X&X&X# # $ D D D : # % 9 y y a Z.Z.Z.Z.Z.Z.G.R.R.R.G.A.Z.Z.C.V.V.V.B.j ; # l n n > # # # &X&X&X",
"&X&X&X&X&X# : 1 D D D v > # 9 y y s j.m.V.V.V.V.F.F.F.F.F.C.V.V.z.l.l.l.k.; # : H K C M : # # &X&X&X",
"&X&X&X# # # V R M M M D K + . y y y y j.V.V.V.V.V.V.V.V.V.V.V.V.k # # # # # : m ~ ( ) W M + # # &X&X",
"&X&X&X# # # n V ~ ~ ~ C m n *   r y y O j j j j B.V.V.V.V.B.l.j ; v |.R # 2 B ~ B 5 C K ~ M 1 # &X&X",
"&X&X&X# # # 5 m ^ ^ ( V m m > # r t r X @ @ @ @ m.N.N.N.N.N.x.5 > H %X/ # v K ) l $ A W ( B 2 # &X&X",
"&X&X&X# $ M Q ) # : m ^ ^ m 1 # # # # i  . .]  .@ # # # + # n.$X$XXX .0 # n C ) K C OX/.( B 2 # &X&X",
"&X&X&X# $ M Q ) 1 V Y._ ^ m 1 # . d P.q.w.w.w.w.I.P.P.P.P.P.~.).).w.] 0 # n C ) I.U.OX/.) B v # &X&X",
"&X&X&X# $ n Q ) m ! oXQ.^ m > # r @.@X@X@X@X@X@X@X@X@X@X@X@X`.[ ] ] ] 0 # n C ( |.oXoX/.( B 2 # &X&X",
"&X&X&X&X&X$ n m ( ( Q.K m $ # &X@ * n v v n v v f v v v v v < % % % % &X&X$ > B / Q.Q.Q B $ $ &X&X&X",
"&X&X&X&X&X# 1 2 W W W n l # &X&X# # # # # # # # # # # # # # # # # # # &X&X# $ 2 K W W C 2 $ # &X&X&X",
"&X&X&X&X&X&X# # # # # $ @ &X&X&X&X&X&X&X&X&X&X&X&X&X&X&X&X&X&X&X&X&X&X&X&X&X&X# # # # # # &X&X&X&X&X",
"&X&X&X&X&X&X&X&X&X&X&X&X&X&X&X&X&X&X&X&X&X&X&X&X&X&X&X&X&X&X&X&X&X&X&X&X&X&X&X&X&X&X&X&X&X&X&X&X&X&X",
"&X&X&X&X&X&X&X&X&X&X&X&X&X&X&X&X&X&X&X&X&X&X&X&X&X&X&X&X&X&X&X&X&X&X&X&X&X&X&X&X&X&X&X&X&X&X&X&X&X&X"
};
