/* XPM */
static char *result[] = {
/* columns rows colors chars-per-pixel */
"50 50 205 2 ",
"   c #1D1F1F",
".  c #381A1A",
"X  c #2E1919",
"o  c #3F211F",
"O  c #181F2F",
"+  c #042727",
"@  c #0C2525",
"#  c #012828",
"$  c #0C2E2D",
"%  c #00272B",
"&  c #152323",
"*  c #1C2222",
"=  c #152828",
"-  c #0F312F",
";  c #13312E",
":  c #00233F",
">  c #0B3131",
",  c #133533",
"<  c #1C3834",
"1  c #153A3A",
"2  c #1C3E3D",
"3  c #1B3632",
"4  c #182830",
"5  c #292121",
"6  c #242222",
"7  c #253D38",
"8  c #233C37",
"9  c #313F36",
"0  c #2A2E24",
"q  c #520D0D",
"w  c #5C0A0A",
"e  c #441616",
"r  c #531B1B",
"t  c #5D1414",
"y  c #5E0E19",
"u  c #6C0404",
"i  c #64050E",
"p  c #730202",
"a  c #780000",
"s  c #7C0C0C",
"d  c #6A1415",
"f  c #640025",
"g  c #4A2523",
"h  c #712121",
"j  c #31443D",
"k  c #4B4C3D",
"l  c #5F493B",
"z  c #716A33",
"x  c #001E55",
"c  c #001C5E",
"v  c #002147",
"b  c #00374B",
"n  c #093853",
"m  c #03196B",
"M  c #00167C",
"N  c #330970",
"B  c #570067",
"V  c #6B0067",
"C  c #1E4242",
"Z  c #14444B",
"A  c #234444",
"S  c #2A4A4A",
"D  c #244848",
"F  c #384840",
"G  c #324D4D",
"H  c #335353",
"J  c #3E5555",
"K  c #3C5D5D",
"L  c #2F5252",
"P  c #3F6060",
"I  c #326E7F",
"U  c #424D44",
"Y  c #4B5348",
"T  c #485147",
"R  c #5B5544",
"E  c #495B5B",
"W  c #5D5D50",
"Q  c #645946",
"!  c #7A624B",
"~  c #776B5B",
"^  c #486868",
"/  c #456565",
"(  c #556262",
")  c #5C6767",
"_  c #537878",
"`  c #646B6B",
"'  c #6D7272",
"]  c #6E7878",
"[  c #747575",
"{  c gray47",
"}  c #777C7C",
"|  c #840303",
" . c #8B0303",
".. c #940202",
"X. c #9A0101",
"o. c #861212",
"O. c #911111",
"+. c #941C1C",
"@. c #891A06",
"#. c #A10000",
"$. c #A90404",
"%. c #B90303",
"&. c #A41F1F",
"*. c #A03F0D",
"=. c #B13030",
"-. c #8D2929",
";. c #CE0606",
":. c #C30303",
">. c #D30101",
",. c #DA0303",
"<. c #D00D16",
"1. c #E30202",
"2. c #EB0000",
"3. c #F40000",
"4. c #F80000",
"5. c #ED1115",
"6. c #E32929",
"7. c #8E651F",
"8. c #826622",
"9. c #C87F1B",
"0. c #860067",
"q. c #8C6B50",
"w. c #846850",
"e. c #936E52",
"r. c #916F56",
"t. c #AA7A5A",
"y. c #A27657",
"u. c #837360",
"i. c #806060",
"p. c #A27B6E",
"a. c #C87272",
"s. c #D27E7E",
"d. c #B48521",
"f. c #D89820",
"g. c #9A806A",
"h. c #A88268",
"j. c #B88666",
"k. c #B28E74",
"l. c #B18D74",
"z. c #C28E6E",
"x. c #C69576",
"c. c #D29C7C",
"v. c #001193",
"b. c #310084",
"n. c #000CAA",
"m. c #1907B4",
"M. c #0B4F92",
"N. c #005BA1",
"B. c #0041B4",
"V. c #0266B7",
"C. c #0006C9",
"Z. c #0003D1",
"A. c #0002D9",
"S. c #0000E0",
"D. c #000BE2",
"F. c #0010E3",
"G. c #0038EB",
"H. c #0026E7",
"J. c #0272D5",
"K. c #106DCC",
"L. c #005BF1",
"P. c #0057F0",
"I. c #004DEE",
"U. c #007AE9",
"Y. c #007BF7",
"T. c #007EF8",
"R. c #296BCF",
"E. c #5C8080",
"W. c #738787",
"Q. c #748C8C",
"!. c #749696",
"~. c #6A8E8F",
"^. c #2484D4",
"/. c #0080F8",
"(. c #78D0F8",
"). c #818585",
"_. c #828888",
"`. c #8C9D9D",
"'. c #8AAAAA",
"]. c #A7B4B4",
"[. c #AFB4B4",
"{. c #A99785",
"}. c #CD9D80",
"|. c #CE8989",
" X c #D6A384",
".X c #DCA585",
"XX c #E0A888",
"oX c #D4B1A8",
"OX c #BDC2BF",
"+X c #BBDADA",
"@X c #ADC9C9",
"#X c #CBD8D7",
"$X c #DBD9D9",
"%X c #D9C8C8",
"&X c #C3E2E2",
"*X c #CAE8E8",
"=X c #E3E7E7",
"-X c #EEEFEF",
";X c #E6E8E7",
":X c #F6F1EF",
">X c #EEF2F2",
",X c #F8F8F8",
"<X c #F4F7F7",
"1X c #ECD6D6",
"2X c None",
/* pixels */
"2X2X2X2X2X2X2X2X2X2X2X2X2X2X2X2X2X2X2X2X2X2X# % # # # # # 2X2X2X2X2X2X2X2X2X2X2X2X2X2X2X2X2X2X2X2X2X",
"2X2X2X2X2X2X2X2X2X2X2X2X2X2X2X2X2X2X2X2X2X2Xe r r r r r r 2X2X2X2X2X2X2X2X2X2X2X2X2X2X2X2X2X2X2X2X2X",
"2X2X2X2X2X2X2X2X2X2X2X2X2X2X2X2X2X2X# # # # o.4.4.4.4.4.1.= # 2X2X2X2X2X2X2X2X2X2X2X2X2X2X2X2X2X2X2X",
"2X2X2X2X2X2X2X2X2X2X2X2X2X2X2X# # o ;.;.;.;.1.4.4.4.4.4.1.= # 2X2X2X2X2X2X2X2X2X2X2X2X2X2X2X2X2X2X2X",
"2X2X2X2X2X2X2X2X2X2X2X2X2X2X6 5 5 t 4.4.4.2.2.2.2.2.3.5.6.= # 2X2X2X2X2X2X2X2X2X2X2X2X2X2X2X2X2X2X2X",
"2X2X2X2X2X2X2X2X2X2X2X2X2X# o.4.4.4.4.4.2.#.#.#.#.#.#.|.=X1 # 2X2X2X2X2X2X2X2X2X2X2X2X2X2X2X2X2X2X2X",
"2X2X2X2X2X2X2X2X2X2X2X# * O.>.4.4.2.%.%.%. .| | | +.oX1X=X1 # 2X2X2X2X2X2X2X2X2X2X2X2X2X2X2X2X2X2X2X",
"2X2X2X2X2X2X2X2X2X2X2X# 6 4.4.4.4.1.#.#.X.a a a a -.,X,X=X1 # 2X2X2X2X2X2X2X2X2X2X2X2X2X2X2X2X2X2X2X",
"2X2X2X2X2X2X2X2X2X2X# ;.4.4.:.#.#.X.a a u + # # # # # # # # # # 2X2X2X2X2X2X2X2X2X2X2X2X2X2X2X2X2X2X",
"2X2X2X2X2X2X2X2X2X# # ;.4.,.%.....a q q q r r r r r r r r r r r 2X2X2X2X2X2X2X2X2X2X2X2X2X2X2X2X2X2X",
"2X2X2X2X2X2X2X2X# # # ;.2.#. .p a w $ # * 2.4.4.4.4.4.4.4.4.4.4.5 # 2X2X2X2X2X2X2X2X2X2X2X2X2X2X2X2X",
"2X2X2X2X2X2X# # ;.;.;.%.$.| e & & e ;.;.%.0 5 5 5 5 5 5 5 5 d $.* # # 2X2X2X2X2X2X2X2X2X2X2X2X2X2X2X",
"2X2X2X2X2X2X# # 2.2.3.$...u o < < g <.,.%.$ - < Z 1 C 1 3 # .  .= + # 2X2X2X2X2X2X2X2X2X2X2X2X2X2X2X",
"2X2X2X2X2X2X# # #.#.#.| u @ ~ .X Xh.@ @ @ # ~ c.+X&X&XoXx., + + 2X2X2X2X2X2X2X2X2X2X2X2X2X2X2X2X2X2X",
"2X2X2X2X2X2X# # #.#.#.e . l h..X.X}.~ j ; ~ k.XX;X&XE.{.c., # 2X2X2X2X2X2X2X2X2X2X2X2X2X2X2X2X2X2X2X",
"2X2X2X2X2X2X# # #.#.#.* ; y.x..X.X.X.XF 8 c.XXXX:X#X# u.}., # 2X2X2X2X2X2X2X2X2X2X2X2X2X2X2X2X2X2X2X",
"2X2X2X2X2X2X2X2X@ @ @ + ; y.x..XXX.XXXU <  X.XXX:X#X# u.}., # # % % 2X2X2X2X2X2X2X2X2X2X2X2X2X2X2X2X",
"2X2X2X2X2X2X2X2X# # # # ; ! h.c. X XXXU 3  XXXXXOX].F g. XU F j F F 2X2X2X2X2X2X2X2X2X2X2X2X2X2X2X2X",
"2X2X2X2X2X2X2X2X2X2X# # # # l t.t.j.XXU 3  XXXXX; 7 XXXXXX.XXXXX.Xk.# 2X2X2X2X2X2X2X2X2X2X2X2X2X2X2X",
"2X2X2X2X2X2X2X2X2X2X# # # # 3 9 j W .Xk.l..XXXXX; $ U U Y j.j.j.j.y.# 2X2X2X2X2X2X2X2X2X2X2X2X2X2X2X",
"2X2X2X2X2X2X2X2X2X2X# # # # # # ; k  X.X.XXXXXXXj 3 # # $ w.e.e.e.! # 2X2X2X2X2X2X2X2X2X2X2X2X2X2X2X",
"2X2X2X2X2X2X2X2X2X2X2X# # # # # e.y.t.c.XXXXXXXX Xk.# + # $ $ + $ + 2X2X2X2X2X2X2X2X2X2X2X2X2X2X2X2X",
"2X2X2X2X2X2X2X2X2X2X2X2X2X2X# # k k k y.z.z.c.XX.X}.~ j # # # # # 2X2X2X2X2X2X2X2X2X2X2X2X2X2X2X2X2X",
"2X2X2X2X2X2X2X2X2X2X2X2X2X2X# # # # # ! t.t.x..XXXXX.XW # # # # 2X2X2X2X2X2X2X2X2X2X2X2X2X2X2X2X2X2X",
"2X2X2X2X2X2X2X2X2X2X2X2X2X# M.U.<.1.1.g ; $ Q t.t.h.t.y.q.$ # # 2X2X2X2X2X2X2X2X2X2X2X2X2X2X2X2X2X2X",
"2X2X2X2X2X2X2X2X2X2X2X2X2Xv M.R.5.4.4.d 5 5 l r.q.q.q.q.w.G S S 2X2X2X2X2X2X2X2X2X2X2X2X2X2X2X2X2X2X",
"2X2X2X2X2X2X2X2X2X2X2X# : A.0.4.4.4.4.4.4.4.d % # # # # 1 =X,X,XS # # 2X2X2X2X2X2X2X2X2X2X2X2X2X2X2X",
"2X2X2X2X2X2X2X2X2X2X# # : A.V :.3.4.4.4.4.4.:.O.O.O.O.w.`.-X,X,X].Q.# # # 2X2X2X2X2X2X2X2X2X2X2X2X2X",
"2X2X2X2X2X2X2X2X2X2X; # : A.B #.1.4.3.4.4.4.4.4.4.4.4.s.+X<X<X<X<X#X# # # 2X2X2X2X2X2X2X2X2X2X2X2X2X",
"2X2X2X2X2X2X2X2X# Y }.8 : A.B #.#.$.#.,.4.4.4.4.4.4.4.h Z +X*X*X*X@X# # # # # 2X2X2X2X2X2X2X2X2X2X2X",
"2X2X2X2X2X2X2X2X# Y XX7 : A.N t X.#.#.:.>.>.>.>.>.>.>.o.g Q.!.!.!.~.I Z # # # 2X2X2X2X2X2X2X2X2X2X2X",
"2X2X2X2X2X2X2X2X# Y XX7 : A.M # ..#.#.#.#.#.#.#.#.X.#.X...@ # % # Z (.I # # # # 2X2X2X2X2X2X2X2X2X2X",
"2X2X2X2X2X2X2X2X# Y XX7 v A.C.C.4     s X.#.$.X.#. .* * 4 J.J.J.J.V.Z z d.d.8.+ # # # # # 2X2X2X2X2X",
"2X2X2X2X2X2X2X2X# Y .X7 : A.S.A.x v v y | | | | | d b b n U.T./.T.J.0 8.9.9.8.+ > > > > > 2X2X2X2X2X",
"2X2X2X2X2X*X*X*X# Y XX7 : A.S.S.S.S.A.m # # # # # b /././././././.^.f.*.a a q # K ^ ^ ^ / > % 2X2X2X",
"2X2X2X2X2X_ _ _ # < W ; : A.S.S.S.S.S.B.N.N.N.N.N.V./././././././.K.*.@.a a q # 1 C C S H > # 2X2X2X",
"2X2X2X2X2X# # # # # # # : Z.A.S.S.S.S.P.Y.Y.T./././.T.Y.Y.Y.Y.Y./.K.a a a p q # # # # 1 D $ # 2X2X2X",
"2X2X2X2X2X# # # A A A # # : v.S.S.A.S.D.F.F.I.T././.Y.I.F.F.F.F.F.C.a a p * @ # H P P D # # # 2X2X2X",
"2X2X2X2X2X# $ > E J E , > # m n.n.n.n.Z.S.S.G.P.L.L.L.H.S.S.S.S.m.b.a a p @ % 1 H P P L 1 # # 2X2X2X",
"2X2X2X# # # 2 D { [ { H A % % % # # # n.S.S.S.S.S.S.S.S.S.S.S.S.s | a a p & 2 ^ L S S H / > # # 2X2X",
"2X2X2X# @ n ( ` J G 2 ) ) A > # [.'.# v m A.S.S.S.S.A.v.x x x x i a a e * 2 A H ( ` ` ( S > # # 2X2X",
"2X2X2X# $ S ) { H A % ` ' S 1 # 1X[.1 1 n C.Z.Z.Z.Z.Z.m & @ @ @ w u u X + A S S ` ] ' E S $ # # 2X2X",
"2X2X2X# $ S ) { *X'.S ' ' S , # ..=.,X,X$X> # # + # % y X.#.X.#.  # # # # A J { J A + G { G 2 # 2X2X",
"2X2X2X# $ D ) { *X@X!.} ' S , # X.&.|.|.|.W.W.W.W.W.Q.p.a.a.a.a.W.' .   # A J { Q.~.> E ] G 2 # 2X2X",
"2X2X2X# $ D ) [ *X&X&XW.' S , #  .X.X.X.&.;X-X-X-X-X-X-X-X-X-X-X:X%Xa X # A J [ @X+XS E [ S 2 # 2X2X",
"2X2X2X2X2X$ A S ).).).E S $ % 2X& & = & = C C C A C C C C C C A C 2 & 2X2X$ , G [ ).[ ( G > $ 2X2X2X",
"2X2X2X2X2X# 1 C W ( ( A C + 2X2X# # # # # # # # # # # # # # # # # # # 2X2X# $ 2 E E ( H 2 $ # 2X2X2X",
"2X2X2X2X2X2X# # % % # # # 2X2X2X2X2X2X2X2X2X2X2X2X2X2X2X2X2X2X2X2X2X2X2X2X2X2X# # + # # # 2X2X2X2X2X",
"2X2X2X2X2X2X2X2X2X2X2X2X2X2X2X2X2X2X2X2X2X2X2X2X2X2X2X2X2X2X2X2X2X2X2X2X2X2X2X2X2X2X2X2X2X2X2X2X2X2X",
"2X2X2X2X2X2X2X2X2X2X2X2X2X2X2X2X2X2X2X2X2X2X2X2X2X2X2X2X2X2X2X2X2X2X2X2X2X2X2X2X2X2X2X2X2X2X2X2X2X2X"
};
